<?xml version="1.0" encoding="UTF-8" standalone="no"?><!DOCTYPE svg PUBLIC "-//W3C//DTD SVG 1.1//EN" "http://www.w3.org/Graphics/SVG/1.1/DTD/svg11.dtd"><svg width="100%" height="100%" viewBox="0 0 2001 2000" version="1.1" xmlns="http://www.w3.org/2000/svg" xmlns:xlink="http://www.w3.org/1999/xlink" xml:space="preserve" style="fill-rule:evenodd;clip-rule:evenodd;stroke-linejoin:round;stroke-miterlimit:1.41421;"><rect id="wit" x="0.745" y="0" width="2000" height="2000" style="fill:none;"/><g><g><g id="Objects"><path d="M1127.47,723.092c125.097,0 226.66,101.563 226.66,226.66c0,125.097 -101.563,226.66 -226.66,226.66c-125.097,0 -226.66,-101.563 -226.66,-226.66c0,-125.097 101.563,-226.66 226.66,-226.66Zm0,24.849c111.383,0 201.811,90.428 201.811,201.811c0,111.382 -90.428,201.811 -201.811,201.811c-111.382,0 -201.811,-90.429 -201.811,-201.811c0,-111.383 90.429,-201.811 201.811,-201.811Z" style="fill:#fff;"/><path d="M692.218,811.359l204.157,-293.605l22.812,16.495l-153.594,215.19c31.66,-16.817 67.771,-26.347 106.09,-26.347c71.619,0 135.524,33.288 177.072,85.223c-6.883,3.842 -13.456,8.171 -19.675,12.941c-37.28,-45.598 -93.964,-74.724 -157.397,-74.724c-63.228,0 -119.751,28.938 -157.033,74.281l-16.188,22.679c-19.024,30.925 -29.999,67.321 -29.999,106.26c0,112.16 91.06,203.22 203.22,203.22c63.433,0 120.117,-29.126 157.397,-74.724c6.218,4.77 12.792,9.099 19.675,12.94c-41.548,51.935 -105.453,85.224 -177.072,85.224c-125.097,0 -226.66,-101.563 -226.66,-226.66c0,-43.9 12.507,-84.901 34.15,-119.631l0,-0.001l0.006,-0.008c4.036,-6.477 8.389,-12.735 13.039,-18.753Z" style="fill:#fff;"/><path d="M1222,829.518l0,233.065l-94.751,34.374l-94.31,-34.374l0,-233.065l189.061,0Zm-95.192,3.085l-89.903,0l0,228.283l89.462,31.29l0.441,-259.573Zm-10.577,229.209c0,2.617 -2.417,4.737 -5.398,4.737c-2.982,0 -5.399,-2.12 -5.399,-4.737c0,-2.617 2.417,-4.738 5.399,-4.738c2.981,0 5.398,2.121 5.398,4.738Zm-14.102,-0.441c0,2.617 -2.417,4.738 -5.399,4.738c-2.982,0 -5.398,-2.121 -5.398,-4.738c0,-2.617 2.416,-4.738 5.398,-4.738c2.982,0 5.399,2.121 5.399,4.738Zm-14.764,-1.542c0,2.434 -2.368,4.407 -5.288,4.407c-2.92,0 -5.289,-1.973 -5.289,-4.407c0,-2.435 2.369,-4.407 5.289,-4.407c2.92,0 5.288,1.972 5.288,4.407Zm11.348,-5.95l-2.313,0l1.983,-7.602l1.873,0.11l-1.543,7.492Zm6.721,-7.382l1.653,-0.44l2.644,7.051l-1.873,0.551l-2.424,-7.162Zm-11.789,-1.762l1.102,0.661l-4.627,7.051l-3.085,-0.992l6.61,-6.72Zm117.217,-28.145c-1.197,7.052 -6.842,30.474 -33.594,29.907c-12.26,-0.26 -20.205,-5.26 -25.354,-11.531c-1.075,0.002 -2.352,0.059 -2.476,-0.105c-0.002,0.01 -0.005,0.018 -0.007,0.024c-0.071,0.215 1.324,0.15 2.483,0.147c5.149,6.271 13.094,11.272 25.354,11.532c26.83,0.568 32.429,-22.991 33.604,-29.968l-0.01,-0.006Zm-68.406,-7.672c-0.002,-0.001 -0.003,-0.002 -0.003,-0.002c0,0 0.001,0.023 0.003,0.069l0.002,0.002c0.013,0.271 0.049,0.934 0.148,1.898c-0.003,-0.002 -0.006,-0.004 -0.01,-0.006l0.015,0.008c0.835,0.461 2.289,1.131 4.836,2.058c5.657,2.057 8.447,1.763 8.447,1.763c0,0 -3.82,0.882 -8.153,0.073c-2.315,-0.431 -3.89,-1.155 -4.861,-1.737l-0.003,-0.001c-0.311,-0.187 -0.561,-0.359 -0.751,-0.502c0.191,0.143 0.441,0.316 0.754,0.503c0.206,1.392 0.514,3.061 0.966,4.904c0.785,0.35 2.009,0.773 3.821,1.093c3.746,0.661 6.611,0.587 6.611,0.587c0,0 -2.204,1.322 -6.611,0.882c-1.455,-0.146 -2.513,-0.348 -3.284,-0.553c0.332,1.152 0.721,2.349 1.177,3.572c-0.001,-0.001 -0.002,-0.001 -0.003,-0.001l0.002,0c0.001,0.004 0.002,0.007 0.004,0.01c-0.002,-0.003 -0.003,-0.006 -0.004,-0.01c0.62,0.164 1.29,0.309 1.888,0.361c1.689,0.146 5.214,0.146 5.214,0.146c0,0 -3.157,1.396 -4.994,1.396c-0.45,0 -0.913,-0.004 -1.356,-0.011l-0.016,0c-1.358,-0.021 -2.52,-0.063 -2.52,-0.063l-0.02,-0.172l0.02,0.173c0,0 1.172,0.042 2.536,0.062c0.425,1.005 0.899,2.016 1.421,3.026l0.006,0.002c0.437,0.185 0.895,0.349 1.326,0.435c1.468,0.294 4.92,0.441 4.92,0.441c0,0 -1.983,1.277 -5.049,1.271l-0.005,0c-0.121,-0.001 -0.244,-0.003 -0.368,-0.007c0.126,0.004 0.25,0.007 0.372,0.007c0.52,0.863 1.081,1.718 1.686,2.556c-0.024,-0.006 -0.045,-0.012 -0.066,-0.017c0.021,0.006 0.044,0.012 0.066,0.018c0.006,0.007 0.011,0.015 0.016,0.022c-0.005,-0.007 -0.01,-0.015 -0.016,-0.022c0.714,0.191 1.687,0.432 2.041,0.432c0.589,0 2.572,-0.22 2.572,-0.22c0,0 -2.055,1.468 -3.233,1.468c-0.026,0 -0.056,0.001 -0.085,0.001l-0.001,0c-0.063,0.001 -0.126,0.001 -0.19,0.001c0.064,0 0.127,0 0.19,-0.001c5.149,6.271 13.094,11.272 25.354,11.532c26.685,0.565 32.366,-22.732 33.583,-29.847l0.01,0.006c0.004,-0.021 0.008,-0.041 0.011,-0.06l-0.011,-0.006c-0.003,0.02 -0.007,0.041 -0.01,0.06l-3.945,-2.192c0,0 0.073,0.221 -0.698,1.91c-0.752,1.65 -5.156,14.154 -21.376,15.009c0.105,0.57 0.164,1.661 -0.072,3.736c-0.44,3.892 -1.91,5.14 -1.91,5.14c0,0 0.661,-1.909 0.661,-6.022c0,-1.629 -0.081,-2.49 -0.178,-2.946l-0.001,0c-0.029,-0.138 -0.059,-0.239 -0.09,-0.312l-0.002,0c-0.011,-0.023 -0.021,-0.045 -0.031,-0.064l-0.043,0.002c-0.093,-0.099 -0.168,0.007 -0.168,0.007l0.168,-0.007c0.014,0.014 0.028,0.036 0.043,0.064l0.03,-0.002c0.031,0.073 0.063,0.169 0.093,0.312c-0.012,0 -0.024,-0.001 -0.036,-0.001c0.012,0.045 0.025,0.076 0.038,0.134c-0.843,0 -1.643,-0.056 -2.402,-0.161c0.007,0.329 -0.008,0.742 -0.066,1.284c-0.22,2.057 -1.174,3.012 -1.174,3.012c0,0 0.441,-1.47 0.441,-3.012c0,-0.599 -0.055,-1.137 -0.124,-1.578c0.005,0.001 0.01,0.002 0.015,0.003c-0.005,-0.001 -0.01,-0.002 -0.015,-0.003c-0.002,-0.012 -0.004,-0.023 -0.006,-0.034c0.002,0.011 0.004,0.023 0.006,0.034c-0.007,-0.002 -0.015,-0.004 -0.023,-0.006c-0.076,-0.454 -0.161,-0.787 -0.2,-0.927l-0.02,-0.007c0,0 0.109,0.361 0.208,0.932c0.004,0 0.008,0.001 0.012,0.002c0.007,0.048 0.016,0.087 0.024,0.138c-13.081,-2.634 -13.212,-20.747 -13.208,-21.814l0,-0.056c-0.002,0.001 -5.4,3.911 -12.67,3.911c-6.791,0 -11.617,-3.969 -11.674,-4.017c-0.001,-0.027 -0.002,-0.05 -0.002,-0.069Zm-34.818,30.418c0,3.043 -3.256,5.509 -7.272,5.509c-4.016,0 -7.272,-2.466 -7.272,-5.509c0,-3.043 3.256,-5.509 7.272,-5.509c4.016,0 7.272,2.466 7.272,5.509Zm44.223,-4.567c0.004,0.004 0.008,0.009 0.011,0.013c-0.002,-0.002 -0.004,-0.004 -0.006,-0.007l-0.005,-0.006Zm-2.423,-0.04c-0.003,0.009 -0.006,0.017 -0.008,0.024c-0.003,0.011 0.004,0.02 0.012,0.029c0.003,-0.013 0.006,-0.026 0.009,-0.04c-0.005,-0.004 -0.01,-0.008 -0.013,-0.013Zm2.4,0.011c0.004,0.005 0.008,0.01 0.013,0.016l-0.006,-0.007c-0.002,-0.003 -0.005,-0.006 -0.007,-0.009Zm-0.061,-0.075c0.017,0.022 0.035,0.043 0.052,0.065c-0.015,-0.02 -0.031,-0.039 -0.047,-0.059l-0.005,-0.006Zm-0.079,-0.097l0.005,0.005c-0.003,-0.004 -0.007,-0.008 -0.01,-0.012l0.005,0.007Zm-0.087,-0.11c0.008,0.011 0.017,0.021 0.025,0.032c-0.008,-0.011 -0.017,-0.021 -0.025,-0.032Zm-0.027,-0.034c0.004,0.005 0.008,0.01 0.012,0.015c-0.002,-0.003 -0.005,-0.005 -0.007,-0.008l-0.005,-0.007Zm-0.029,-0.036c0.008,0.01 0.016,0.02 0.024,0.03l-0.005,-0.007c-0.006,-0.008 -0.013,-0.015 -0.019,-0.023Zm-0.012,-0.016c0.002,0.003 0.005,0.007 0.007,0.01l-0.002,-0.003l-0.005,-0.007Zm-0.047,-0.059c0.005,0.006 0.009,0.012 0.013,0.017c-0.002,-0.003 -0.005,-0.007 -0.008,-0.01l-0.005,-0.007Zm-0.03,-0.038c0.006,0.008 0.012,0.016 0.018,0.023c-0.006,-0.007 -0.012,-0.015 -0.018,-0.023Zm-0.006,-0.007l0.001,0.001l-0.001,-0.001l-0.003,-0.004l0.003,0.004Zm-0.132,-0.171l0.002,0.003l-0.002,-0.003l-0.005,-0.005l0.005,0.005Zm-0.02,-0.025c0.004,0.005 0.008,0.01 0.011,0.014c-0.003,-0.004 -0.007,-0.009 -0.011,-0.014Zm-0.016,-0.021c0.004,0.005 0.008,0.01 0.011,0.015c-0.002,-0.003 -0.004,-0.005 -0.006,-0.008l-0.005,-0.007Zm-0.055,-0.071c0.005,0.006 0.009,0.012 0.014,0.017c-0.005,-0.005 -0.009,-0.011 -0.014,-0.017Zm-0.041,-0.054c0.012,0.016 0.023,0.031 0.035,0.046c-0.012,-0.015 -0.023,-0.03 -0.035,-0.046Zm-0.11,-0.144l0.004,0.005l-0.004,-0.005l-0.004,-0.005l0.004,0.005Zm-0.035,-0.047c0.006,0.009 0.013,0.017 0.019,0.026c-0.005,-0.006 -0.009,-0.013 -0.014,-0.019l-0.005,-0.007Zm-0.07,-0.092c0.02,0.026 0.04,0.053 0.06,0.079l-0.005,-0.006c-0.018,-0.025 -0.036,-0.049 -0.055,-0.073Zm-0.059,-0.08c0.018,0.024 0.035,0.047 0.052,0.07c-0.017,-0.023 -0.034,-0.046 -0.052,-0.07Zm-0.024,-0.033l0.003,0.004c-0.003,-0.003 -0.006,-0.007 -0.008,-0.01l0.005,0.006Zm-0.099,-0.132c0.025,0.034 0.051,0.068 0.076,0.102c-0.025,-0.034 -0.051,-0.068 -0.076,-0.102Zm-0.009,-0.014l0.002,0.003l-0.002,-0.003l-0.003,-0.003l0.003,0.003Zm-0.034,-0.046c0.004,0.006 0.008,0.011 0.012,0.017c-0.003,-0.004 -0.005,-0.007 -0.008,-0.01l-0.004,-0.007Zm-0.053,-0.072c0.004,0.005 0.008,0.01 0.011,0.015c-0.003,-0.005 -0.007,-0.01 -0.011,-0.015Zm-0.03,-0.041c0.005,0.007 0.011,0.014 0.016,0.022c-0.007,-0.01 -0.014,-0.019 -0.021,-0.029l0.005,0.007Zm-0.024,-0.033l0,0c-0.001,-0.002 -0.003,-0.005 -0.005,-0.007l0.005,0.007Zm-5.011,-4.853c0,0.036 0,0.072 0.001,0.109c-0.008,0.887 0.368,2.181 2.616,2.324c0.233,0.015 0.459,0.021 0.68,0.022c0.468,0.78 0.975,1.551 1.514,2.311c0.019,0.005 0.038,0.011 0.058,0.016c-0.561,-0.786 -1.087,-1.586 -1.573,-2.394c-0.221,-0.001 -0.446,-0.006 -0.679,-0.021c-2.23,-0.142 -2.618,-1.418 -2.615,-2.304c-0.001,-0.021 -0.002,-0.042 -0.002,-0.063Zm37.57,2.57l-0.042,0.002c-0.093,-0.098 -0.168,0.008 -0.168,0.008l0.168,-0.008c0.035,0.037 0.073,0.121 0.11,0.241c0.006,0 0.013,0 0.019,0c-0.028,-0.104 -0.058,-0.187 -0.087,-0.243Zm1.452,0.212c-0.17,0.009 -0.34,0.017 -0.512,0.025c0.172,-0.007 0.342,-0.016 0.512,-0.025Zm-3.739,-0.13c0,0 0,0 0,0Zm-0.052,-0.007c0.004,0 0.008,0.001 0.011,0.002l-0.003,-0.001c-0.003,0 -0.005,-0.001 -0.008,-0.001Zm-0.04,-0.006c0,0 -0.004,0 -0.004,0l0.004,0Zm-0.051,-0.008c0.004,0.001 0.007,0.002 0.011,0.002c-0.004,0 -0.007,-0.001 -0.011,-0.002l0,0Zm-0.021,-0.003c0.004,0.001 0.008,0.001 0.012,0.002c-0.004,-0.001 -0.008,-0.001 -0.012,-0.002Zm-0.026,-0.004c0.002,0 0.004,0.001 0.006,0.001l-0.003,0l-0.003,-0.001Zm-0.015,-0.002c0,0 -0.001,0 -0.001,0l0.001,0Zm-0.055,-0.009c0.008,0.001 0.015,0.002 0.023,0.004l-0.004,-0.001c-0.006,-0.001 -0.013,-0.002 -0.019,-0.003Zm-0.017,-0.003c0.004,0.001 0.008,0.001 0.012,0.002c-0.004,-0.001 -0.008,-0.001 -0.012,-0.002Zm-0.07,-0.012c0.021,0.004 0.042,0.007 0.063,0.011c-0.021,-0.004 -0.042,-0.007 -0.063,-0.011Zm-0.082,-0.014l-0.003,0c0,0 0.003,0 0.003,0Zm-0.021,-0.004l0.001,0.001l-0.001,-0.001l-0.004,0l0.004,0Zm-0.011,-0.001l0.002,0l-0.002,0l-0.001,-0.001l0.001,0.001Zm-0.057,-0.011c0.01,0.002 0.02,0.004 0.03,0.006c-0.01,-0.002 -0.02,-0.004 -0.03,-0.006Zm-0.061,-0.011c0.012,0.002 0.024,0.004 0.036,0.007c-0.013,-0.003 -0.026,-0.005 -0.039,-0.008l0.003,0.001Zm-0.062,-0.012c0.016,0.003 0.033,0.006 0.049,0.01c-0.016,-0.004 -0.033,-0.007 -0.049,-0.01Zm-0.052,-0.01l0.01,0.002l-0.003,0l-0.007,-0.002Zm-0.035,-0.007c0.003,0.001 0.005,0.002 0.008,0.002l-0.001,0l-0.007,-0.002Zm-0.142,-0.028c0.027,0.006 0.054,0.011 0.082,0.017c-0.025,-0.005 -0.05,-0.01 -0.075,-0.015l-0.007,-0.002Zm-0.014,-0.002l0.007,0.001c-0.003,-0.001 -0.006,-0.001 -0.009,-0.002l0.002,0.001Zm-33.241,-0.61c0.366,0.181 0.842,0.307 1.459,0.347c0.051,0.003 0.101,0.006 0.152,0.008c-0.051,-0.002 -0.102,-0.005 -0.153,-0.008c-0.616,-0.04 -1.092,-0.166 -1.458,-0.347Zm2.109,0.318c0.003,0.005 0.006,0.011 0.01,0.016l-0.005,-0.008l-0.005,-0.008Zm-0.045,-0.075l0.001,0.002c-0.002,-0.003 -0.004,-0.007 -0.006,-0.011l0.005,0.009Zm-0.03,-0.05c0.007,0.011 0.013,0.022 0.02,0.033l-0.005,-0.008c-0.007,-0.012 -0.013,-0.023 -0.02,-0.034l0.005,0.009Zm-0.045,-0.076c0.003,0.005 0.005,0.009 0.008,0.013l-0.003,-0.004l-0.005,-0.009Zm-0.023,-0.04c0.004,0.008 0.009,0.016 0.014,0.024l-0.005,-0.009c-0.003,-0.005 -0.006,-0.01 -0.009,-0.015Zm-0.079,-0.134c0.024,0.042 0.049,0.084 0.074,0.126c-0.025,-0.042 -0.05,-0.084 -0.074,-0.126Zm31.102,-0.405l-0.02,-0.006c0,0 0.008,0.027 0.02,0.072l0.019,0.006c0.022,0.081 0.052,0.196 0.084,0.341c-0.032,-0.143 -0.061,-0.259 -0.083,-0.341l0,0c-0.008,-0.027 -0.014,-0.051 -0.02,-0.072Zm-31.12,0.374c0.004,0.006 0.007,0.012 0.01,0.018c-0.003,-0.006 -0.006,-0.012 -0.01,-0.018Zm-0.012,-0.02l0.003,0.004l-0.003,-0.004l-0.003,-0.006l0.003,0.006Zm-0.058,-0.101c0.006,0.011 0.012,0.021 0.018,0.032c-0.005,-0.008 -0.009,-0.016 -0.014,-0.023l-0.004,-0.009Zm-0.034,-0.058c0.007,0.013 0.015,0.026 0.022,0.039c-0.009,-0.016 -0.018,-0.032 -0.027,-0.048l0.005,0.009Zm-0.029,-0.051l0.004,0.008c-0.003,-0.006 -0.006,-0.011 -0.009,-0.016l0.005,0.008Zm-0.115,-0.201c0.024,0.041 0.047,0.083 0.071,0.124c-0.024,-0.041 -0.047,-0.083 -0.071,-0.124Zm-0.073,-0.131c0.021,0.038 0.042,0.075 0.063,0.113c-0.021,-0.038 -0.042,-0.075 -0.063,-0.113Zm-0.235,-0.424c0.073,0.134 0.147,0.268 0.222,0.402c-0.073,-0.131 -0.146,-0.262 -0.217,-0.393l-0.005,-0.009Zm-0.009,-0.016l0.005,0.008c-0.004,-0.006 -0.007,-0.011 -0.01,-0.017l0.005,0.009Zm-0.023,-0.043l0.005,0.009c-0.002,-0.004 -0.005,-0.008 -0.007,-0.012l0.002,0.003Zm-0.055,-0.101c0.006,0.01 0.011,0.02 0.016,0.03c-0.003,-0.007 -0.007,-0.014 -0.011,-0.021l-0.005,-0.009Zm-0.058,-0.109c0.003,0.007 0.007,0.014 0.011,0.02c-0.006,-0.009 -0.011,-0.019 -0.016,-0.028l0.005,0.008Zm-0.057,-0.105c0.006,0.009 0.011,0.019 0.016,0.028c-0.005,-0.009 -0.01,-0.019 -0.016,-0.028Zm-0.077,-0.148c0.002,0.005 0.005,0.01 0.007,0.015l-0.003,-0.006l-0.004,-0.009Zm-0.023,-0.042l0.002,0.002l-0.002,-0.002l-0.003,-0.007l0.003,0.007Zm-0.022,-0.042l0.002,0.003c-0.002,-0.004 -0.004,-0.008 -0.006,-0.011l0.004,0.008Zm-0.034,-0.065l0.017,0.031c-0.006,-0.01 -0.011,-0.021 -0.017,-0.031Zm-0.005,-0.011l0.003,0.007c-0.002,-0.005 -0.005,-0.01 -0.008,-0.015l0.005,0.008Zm-4.256,-5.408c-0.004,-0.001 -0.008,-0.003 -0.008,-0.003l0.293,2.496c0,0 1.172,0.043 2.536,0.063c0.389,0.92 0.823,1.846 1.295,2.771c0.015,0.007 0.029,0.013 0.043,0.019l0.001,0.001c0.023,0.01 0.046,0.02 0.069,0.03c-0.024,-0.011 -0.046,-0.021 -0.069,-0.031c-0.489,-0.954 -0.938,-1.907 -1.339,-2.857c-1.364,-0.02 -2.536,-0.062 -2.536,-0.062l-0.285,-2.427Zm-63.975,-17.352c1.858,-1.405 6.547,-2.402 12.037,-2.402c7.119,0 12.89,1.676 12.89,3.746c0,2.069 -5.771,3.745 -12.89,3.745c-6.736,0 -12.265,-1.5 -12.841,-3.415l-0.05,0l-2.48,11.756l9.972,8.847c0,0 -15.094,0.661 -25.34,0.11c-10.246,-0.551 -21.044,-2.093 -21.044,-2.093l32.723,-10.136l2.491,2.209l2.577,-12.456l1.955,0.089Zm66.765,19.635l0.001,0.003l-0.001,-0.003l-0.003,-0.007l0.003,0.007Zm-0.06,-0.142l0.01,0.023c-0.002,-0.005 -0.005,-0.01 -0.007,-0.015l-0.003,-0.008Zm-0.052,-0.125l0.037,0.088c-0.012,-0.029 -0.025,-0.058 -0.037,-0.088Zm-0.019,-0.045c0.004,0.009 0.008,0.019 0.013,0.029c-0.006,-0.012 -0.011,-0.025 -0.016,-0.037l0.003,0.008Zm-0.048,-0.118c0.012,0.028 0.023,0.057 0.035,0.085c-0.012,-0.028 -0.023,-0.057 -0.035,-0.085Zm-0.052,-0.127c0.005,0.011 0.009,0.021 0.013,0.032c-0.005,-0.013 -0.01,-0.026 -0.016,-0.039l0.003,0.007Zm-0.038,-0.096c0.009,0.024 0.019,0.047 0.028,0.071c-0.009,-0.024 -0.019,-0.047 -0.028,-0.071Zm-0.009,-0.022l0.001,0.003c-0.001,-0.004 -0.003,-0.007 -0.004,-0.011l0.003,0.008Zm-0.012,-0.03l0.002,0.005l-0.002,-0.005l-0.003,-0.007l0.003,0.007Zm-0.006,-0.015l0.001,0.003c-0.002,-0.004 -0.003,-0.007 -0.004,-0.01l0.003,0.007Zm-0.021,-0.052c0.002,0.006 0.005,0.012 0.007,0.018c-0.002,-0.006 -0.005,-0.012 -0.007,-0.018Zm-0.029,-0.074c0.008,0.022 0.017,0.044 0.025,0.065c-0.007,-0.019 -0.015,-0.038 -0.023,-0.057l-0.002,-0.008Zm-0.047,-0.118c0.002,0.006 0.004,0.012 0.007,0.018c-0.003,-0.006 -0.005,-0.012 -0.007,-0.018Zm-0.021,-0.051l0.001,0l-0.001,0l-0.003,-0.008l0.003,0.008Zm-0.013,-0.035c0.002,0.005 0.004,0.01 0.006,0.015c-0.002,-0.005 -0.004,-0.01 -0.006,-0.015Zm-0.021,-0.054l0.001,0.002l-0.001,-0.002l-0.002,-0.004l0.002,0.004Zm-0.045,-0.114c0.002,0.004 0.003,0.007 0.004,0.011l-0.002,-0.008l-0.002,-0.003Zm-0.013,-0.033c0.002,0.004 0.004,0.009 0.006,0.014l-0.003,-0.007l-0.003,-0.007Zm-0.042,-0.111c0.005,0.014 0.011,0.028 0.016,0.043c-0.004,-0.012 -0.009,-0.024 -0.014,-0.036l-0.002,-0.007Zm-0.051,-0.132c0.002,0.005 0.004,0.011 0.007,0.017c-0.003,-0.006 -0.005,-0.012 -0.007,-0.017Zm-0.034,-0.089c0.005,0.011 0.009,0.022 0.013,0.033c-0.003,-0.008 -0.007,-0.017 -0.01,-0.025l-0.003,-0.008Zm-0.022,-0.058c0.005,0.013 0.011,0.027 0.016,0.041c-0.006,-0.017 -0.012,-0.033 -0.019,-0.049l0.003,0.008Zm-0.008,-0.022l0.002,0.005c-0.002,-0.004 -0.003,-0.009 -0.005,-0.013l0.003,0.008Zm-0.03,-0.081l0.019,0.051c-0.006,-0.014 -0.011,-0.029 -0.017,-0.044l-0.002,-0.007Zm-3.127,-4.347l-0.007,0.059c0,0 0.368,0.427 1.929,0.842c0.313,1.082 0.679,2.205 1.099,3.35c0.009,0.003 0.018,0.005 0.027,0.008c0,0 0,0 0,0.001c0.014,0.004 0.028,0.007 0.042,0.011c-0.014,-0.004 -0.027,-0.008 -0.042,-0.012c-0.431,-1.171 -0.807,-2.319 -1.125,-3.425c-1.443,-0.383 -1.867,-0.777 -1.923,-0.834Zm1.029,3.741c0.003,0.002 0.006,0.003 0.008,0.004l-0.008,-0.069c-0.005,-0.002 -0.008,-0.003 -0.008,-0.003l0.008,0.068Zm0.857,-3.168c0.004,0.014 0.008,0.029 0.012,0.043c-0.004,-0.012 -0.007,-0.023 -0.01,-0.035l-0.002,-0.008Zm-1.886,-0.705l-0.007,0.059c0,0 0.003,0.003 0.007,0.007l0.007,-0.059c0.064,0.063 0.432,0.39 1.584,0.734c-1.175,-0.351 -1.538,-0.687 -1.591,-0.741Zm1.881,0.689l0.002,0.008c-0.001,-0.004 -0.002,-0.007 -0.003,-0.011l0.001,0.003Zm-0.011,-0.04l0.001,0.005l-0.001,-0.005l-0.003,-0.008l0.003,0.008Zm-0.014,-0.048c0.002,0.007 0.004,0.013 0.006,0.02c-0.003,-0.009 -0.006,-0.019 -0.008,-0.028l0.002,0.008Zm-0.011,-0.04l0.001,0.006c-0.001,-0.005 -0.002,-0.009 -0.004,-0.014l0.003,0.008Zm-0.012,-0.04l0.002,0.004l-0.002,-0.004l-0.001,-0.004l0.001,0.004Zm-0.079,-0.286c0.004,0.015 0.008,0.03 0.012,0.045c-0.004,-0.015 -0.008,-0.03 -0.012,-0.045Zm-0.013,-0.048c0.003,0.012 0.006,0.024 0.01,0.037c-0.004,-0.013 -0.007,-0.025 -0.01,-0.037Zm-0.005,-0.016l0.002,0.005c-0.001,-0.004 -0.003,-0.009 -0.004,-0.013l0.002,0.008Zm-0.03,-0.111l0.002,0.007c-0.001,-0.005 -0.003,-0.01 -0.004,-0.015l0.002,0.008Zm-0.015,-0.056l0.011,0.04c-0.004,-0.013 -0.007,-0.026 -0.011,-0.04Zm-0.006,-0.023c0.001,0.004 0.002,0.009 0.003,0.014c-0.002,-0.008 -0.004,-0.015 -0.006,-0.022l0.003,0.008Zm-0.009,-0.032l0.001,0.005l-0.001,-0.005l-0.001,-0.004l0.001,0.004Zm-0.013,-0.047l0.001,0.004l-0.001,-0.004l-0.001,-0.004l0.001,0.004Zm-0.012,-0.047l0,0.001l0,-0.001l-0.002,-0.006l0.002,0.006Zm-0.092,-0.348c0.027,0.104 0.055,0.209 0.083,0.315c-0.028,-0.106 -0.056,-0.211 -0.083,-0.315Zm-0.061,-0.237c0.014,0.056 0.029,0.113 0.043,0.169c-0.015,-0.059 -0.03,-0.118 -0.045,-0.177l0.002,0.008Zm-0.03,-0.115c0.009,0.033 0.017,0.066 0.026,0.099l-0.002,-0.007c-0.008,-0.031 -0.016,-0.062 -0.024,-0.092Zm-0.008,-0.032c0.002,0.007 0.004,0.015 0.006,0.022c-0.002,-0.007 -0.004,-0.015 -0.006,-0.022Zm-0.009,-0.038l0.001,0.005l-0.001,-0.005l-0.002,-0.006l0.002,0.006Zm-0.056,-0.222c0.003,0.012 0.006,0.025 0.01,0.038l-0.002,-0.008c-0.004,-0.013 -0.007,-0.025 -0.01,-0.038l0.002,0.008Zm-2.351,-7.695c-0.003,-0.007 -0.006,-0.011 -0.006,-0.011l0.147,2.055c0,0 0.388,0.4 1.235,0.907c0.198,1.335 0.491,2.928 0.914,4.681c0.006,0.002 0.012,0.005 0.018,0.008c0,0 0.001,0.001 0.001,0.002c0.009,0.004 0.019,0.008 0.029,0.013c-0.011,-0.006 -0.019,-0.01 -0.029,-0.015c-0.434,-1.782 -0.732,-3.4 -0.933,-4.755c-0.847,-0.507 -1.235,-0.907 -1.235,-0.907l-0.141,-1.978Zm1.262,1.938c0.007,0.053 0.014,0.107 0.021,0.161c-0.008,-0.057 -0.015,-0.113 -0.023,-0.169l0.002,0.008Zm-0.015,-0.114c0.003,0.029 0.007,0.057 0.011,0.086c-0.004,-0.029 -0.008,-0.057 -0.011,-0.086Zm-0.011,-0.078c0.003,0.023 0.006,0.046 0.009,0.069l-0.001,-0.008c-0.002,-0.018 -0.004,-0.035 -0.006,-0.052l-0.002,-0.009Zm-0.02,-0.162c0.003,0.026 0.007,0.053 0.01,0.08c-0.003,-0.027 -0.007,-0.054 -0.01,-0.08Zm-0.003,-0.026l0,0.002l0,-0.002l-0.001,-0.004l0.001,0.004Zm-0.003,-0.025c0,0.003 0,0.006 0.001,0.009l-0.001,-0.009c-0.001,-0.003 -0.001,-0.005 -0.002,-0.008l0.002,0.008Zm-0.007,-0.055c0.001,0.01 0.002,0.02 0.003,0.03l-0.001,-0.008c-0.001,-0.007 -0.001,-0.015 -0.002,-0.022Zm-0.003,-0.02l0.001,0.007c-0.001,-0.005 -0.001,-0.01 -0.002,-0.015l0.001,0.008Zm-0.003,-0.03c0,0.007 0.001,0.014 0.002,0.02c-0.001,-0.006 -0.002,-0.013 -0.002,-0.02Zm-0.002,-0.011l0,0.002c0,-0.004 0,-0.007 -0.001,-0.011l0.001,0.009Zm-0.007,-0.058l0.001,0.007c-0.001,-0.005 -0.001,-0.01 -0.002,-0.015l0.001,0.008Zm-0.005,-0.041l0.001,0.005l-0.001,-0.005l0,-0.006l0,0.006Zm-0.005,-0.048c0.001,0.01 0.002,0.02 0.003,0.03c-0.001,-0.007 -0.002,-0.015 -0.003,-0.022l0,-0.008Zm-0.004,-0.032c0,0.005 0.001,0.01 0.001,0.015c0,-0.008 -0.001,-0.016 -0.002,-0.023l0.001,0.008Zm-0.012,-0.1c0.002,0.019 0.004,0.037 0.007,0.055c-0.003,-0.018 -0.005,-0.036 -0.007,-0.055Zm-1.163,-1.208l0.005,0.01l0.089,1.25l-0.089,-1.25c0,0 0,-0.001 0,-0.001l-0.005,-0.072c-0.004,-0.007 -0.005,-0.01 -0.005,-0.01l0.005,0.073Zm1.151,1.103l0,0.004c0,-0.004 0,-0.008 -0.001,-0.012l0.001,0.008Zm-0.421,-5.978c0,0.004 0,0.008 0,0.012c0,3.286 5.525,5.949 12.339,5.949c6.814,0 12.34,-2.663 12.34,-5.949c0,-0.004 0,-0.008 -0.001,-0.012c-0.061,3.261 -5.563,5.895 -12.339,5.895c-6.776,0 -12.278,-2.634 -12.339,-5.895Zm0.411,5.885c0.001,0.009 0.002,0.018 0.002,0.026c0,-0.008 -0.001,-0.017 -0.002,-0.026Zm-0.003,-0.023c0.001,0.005 0.001,0.009 0.001,0.013c0,-0.007 -0.001,-0.013 -0.002,-0.02l0.001,0.007Zm-0.007,-0.067c0,0.004 0.001,0.008 0.001,0.013c-0.001,-0.007 -0.001,-0.014 -0.002,-0.021l0.001,0.008Zm-0.005,-0.045c0.001,0.008 0.001,0.016 0.002,0.024c0,-0.005 -0.001,-0.011 -0.001,-0.017l-0.001,-0.007Zm24.282,-5.926c-0.001,0.019 -0.006,0.037 -0.006,0.055c-0.075,-3.254 -5.564,-5.883 -12.333,-5.883c-6.768,0 -12.257,2.629 -12.332,5.883c0,-0.018 -0.005,-0.036 -0.007,-0.055c0,0.019 0,0.037 0,0.056c0,0.01 0.001,0.021 0.003,0.032c0.002,-0.011 0.003,-0.022 0.004,-0.033c0.075,3.255 5.563,5.884 12.332,5.884c6.768,0 12.258,-2.629 12.333,-5.884c0,0.011 0.002,0.022 0.004,0.033c0.001,-0.011 0.003,-0.022 0.003,-0.032c0,-0.019 0,-0.037 -0.001,-0.056Zm-24.284,5.911c0,0.002 0.001,0.005 0.001,0.007l-0.001,-0.007c0,-0.003 0,-0.005 -0.001,-0.008l0.001,0.008Zm-0.01,-0.091c0.002,0.015 0.004,0.031 0.005,0.047l0,-0.008c-0.002,-0.013 -0.003,-0.026 -0.005,-0.039Zm-0.161,-1.939l-0.003,-0.002c0,0 0.02,0.671 0.132,1.824c0.003,0.001 0.005,0.003 0.007,0.004c-0.096,-0.978 -0.128,-1.623 -0.136,-1.826Zm-75.657,-65.591l-5.205,-2.14l-10.331,11.036l6.05,-36.435l-6.36,2.502l-5.659,-3.235l-0.054,49.142l11.496,-5.981l-3.396,17.442l-5.61,-1.1l2.576,27.221l13.053,-24.155l-4.659,-0.914l8.099,-33.383Zm49.562,32.831c-0.732,0.795 -1.337,1.431 -1.683,1.789c1.366,1.502 0.653,3.763 -0.32,4.736c-1.101,1.102 -6.39,4.076 -11.238,4.958c-4.847,0.881 -20.382,-0.11 -25.009,-3.636c-4.628,-3.526 -2.037,-8.301 -0.992,-11.018c1.102,-2.864 7.051,-8.703 11.238,-11.237c4.187,-2.534 12.119,-5.179 18.95,-5.179c6.831,0 11.458,1.653 12.891,2.975c1.432,1.322 3.746,4.187 2.864,7.492c-0.466,1.748 -2.871,4.785 -5.036,7.264l0,0.001c0.047,0.142 0.078,0.29 0.078,0.447c0,0.792 -1.064,1.433 -1.432,1.433c-0.104,0 -0.205,-0.013 -0.302,-0.034l-0.009,0.009Zm0.68,-2.799c1.569,-1.876 3.118,-3.905 3.377,-4.889c0.551,-2.093 0.771,-5.068 -1.983,-7.492c-2.755,-2.424 -13.317,-5.289 -24.459,0.441c-11.569,5.95 -11.679,7.492 -14.543,11.128c-2.725,3.458 -1.322,8.043 -0.331,8.924c1.751,1.557 7.162,2.754 12.119,2.093c4.958,-0.661 9.255,-3.195 11.679,-4.737c2.301,-1.464 8.27,-2.726 10.755,-1.625c0.287,-0.31 0.92,-1.001 1.702,-1.886c0,0.001 0.001,0.002 0.001,0.002c0,0 -0.001,-0.001 -0.001,-0.002c-0.075,-0.173 -0.117,-0.364 -0.117,-0.566c0,-0.79 0.641,-1.432 1.432,-1.432c0.125,0 0.244,0.02 0.36,0.052l0.009,-0.011Zm-0.678,2.789l0.001,0l-0.001,0l-0.001,-0.001l0.001,0.001Zm-0.019,-0.005c0.001,0.001 0.002,0.001 0.003,0.001c0,0 -0.001,0 -0.001,0l-0.002,-0.001Zm-0.001,0l0.001,0l-0.001,0l0,0l0,0Zm-0.006,-0.001c0.001,0 0.002,0 0.003,0l-0.001,0c-0.001,0 -0.001,0 -0.002,0Zm-0.005,-0.002c0.001,0.001 0.003,0.001 0.004,0.001c-0.001,0 -0.003,0 -0.004,-0.001Zm-0.004,0c0,0 0,0 0,0Zm-0.008,-0.002c0.001,0 0.002,0 0.003,0l-0.001,0c-0.001,0 -0.001,0 -0.002,0Zm-0.002,-0.001l0.001,0l-0.001,0l-0.001,0l0.001,0Zm-0.011,-0.003c0.001,0.001 0.003,0.001 0.004,0.001c-0.001,0 -0.002,0 -0.002,0l-0.002,-0.001Zm-0.004,-0.001c0,0 0.001,0 0.002,0.001l-0.002,-0.001l0,0Zm-0.056,-0.016l-0.001,0l0.001,0Zm-0.024,-0.008c0.007,0.003 0.014,0.005 0.02,0.007l-0.001,0c-0.006,-0.002 -0.012,-0.004 -0.018,-0.006l-0.001,-0.001Zm-0.008,-0.002c0.001,0 0.003,0.001 0.004,0.001c-0.001,0 -0.002,-0.001 -0.002,-0.001l-0.002,0Zm-0.011,-0.004c0.003,0.001 0.006,0.002 0.009,0.003l-0.002,-0.001c-0.002,0 -0.004,-0.001 -0.006,-0.002l-0.001,0Zm-0.005,-0.002c0,0 0.001,0.001 0.002,0.001l-0.001,0l-0.001,-0.001Zm-0.004,-0.001c0.001,0 0.002,0 0.002,0.001l-0.001,-0.001l-0.001,0Zm-0.007,-0.003c0.002,0.001 0.004,0.002 0.006,0.002c-0.001,0 -0.003,-0.001 -0.004,-0.001l-0.002,-0.001Zm-0.007,-0.002c0.001,0 0.003,0.001 0.004,0.001l-0.002,0c0,-0.001 -0.001,-0.001 -0.002,-0.001Zm-0.003,-0.001l0.001,0l-0.001,0l-0.001,-0.001l0.001,0.001Zm-0.01,-0.004c0.003,0.001 0.006,0.002 0.008,0.003c-0.002,-0.001 -0.005,-0.002 -0.008,-0.003Zm-0.001,0l0,0l0,0l0,-0.001l0,0.001Zm-0.006,-0.003c0.001,0.001 0.002,0.001 0.003,0.001c-0.001,0 -0.002,0 -0.003,-0.001Zm-0.004,-0.001l0,0l0,0l-0.001,-0.001l0.001,0.001Zm-0.012,-0.005c0.003,0.001 0.006,0.003 0.009,0.004l-0.001,-0.001c-0.002,-0.001 -0.005,-0.002 -0.008,-0.003Zm-0.013,-0.005c0.002,0.001 0.004,0.001 0.006,0.002c-0.002,-0.001 -0.004,-0.001 -0.006,-0.002Zm-0.004,-0.002l0.001,0l-0.001,0l-0.001,0l0.001,0Zm-0.006,-0.002c0.001,0 0.001,0 0.002,0.001l-0.001,-0.001l-0.001,0Zm-0.009,-0.004c0.002,0.001 0.003,0.001 0.004,0.002l-0.001,-0.001c0,0 -0.001,0 -0.001,0l-0.002,-0.001Zm-0.009,-0.004l0,0l0,0l-0.001,0l0.001,0Zm-0.008,-0.004c0,0.001 0.001,0.001 0.002,0.002c-0.001,-0.001 -0.002,-0.001 -0.002,-0.002Zm-0.02,-0.008l0,-0.001c0,0 0,0.001 0,0.001Zm-0.013,-0.006c0.002,0 0.003,0.001 0.004,0.002l-0.001,-0.001c-0.001,0 -0.001,0 -0.001,-0.001l-0.002,0Zm-0.015,-0.008c0.001,0.001 0.003,0.002 0.004,0.002c-0.002,0 -0.004,-0.001 -0.005,-0.002l0.001,0Zm-0.016,-0.007l0.001,0l-0.001,0l0,-0.001l0,0.001Zm-0.015,-0.008c0.002,0.001 0.003,0.002 0.005,0.003c-0.001,-0.001 -0.003,-0.002 -0.004,-0.002l-0.001,-0.001Zm-0.011,-0.006c0.001,0.001 0.001,0.001 0.002,0.001l-0.001,0l-0.001,-0.001Zm-0.01,-0.005c0.001,0 0.002,0.001 0.003,0.001c-0.001,0 -0.002,-0.001 -0.003,-0.001Zm-0.014,-0.008c0.001,0.001 0.003,0.002 0.004,0.003c-0.001,-0.001 -0.002,-0.002 -0.003,-0.002l-0.001,-0.001Zm-0.002,0l0.001,0l-0.001,0l-0.001,-0.001l0.001,0.001Zm-0.002,-0.002c0,0 0,0 0,0l0,0Zm-0.023,-0.013c0.007,0.004 0.014,0.008 0.021,0.012c-0.007,-0.004 -0.015,-0.008 -0.022,-0.013l0.001,0.001Zm-0.003,-0.002l0,0c0,0 -0.001,0 -0.002,-0.001l0.002,0.001Zm-0.018,-0.01c0.005,0.003 0.01,0.005 0.014,0.008c-0.004,-0.003 -0.009,-0.005 -0.014,-0.008Zm-0.023,-0.015c0.007,0.005 0.015,0.01 0.022,0.014c-0.007,-0.004 -0.015,-0.009 -0.022,-0.014Zm-0.006,-0.003c0.002,0.001 0.003,0.002 0.005,0.003c-0.001,-0.001 -0.003,-0.002 -0.004,-0.002l-0.001,-0.001Zm-0.005,-0.004c0,0.001 0.001,0.001 0.002,0.002l-0.001,-0.001l-0.001,-0.001Zm-0.01,-0.006c0.002,0.001 0.005,0.003 0.007,0.005c-0.002,-0.002 -0.004,-0.003 -0.006,-0.004l-0.001,-0.001Zm-0.005,-0.003l0.001,0.001c0,-0.001 -0.001,-0.001 -0.002,-0.002l0.001,0.001Zm-0.002,-0.002l0.001,0.001l-0.001,-0.001l-0.001,0l0.001,0Zm-0.008,-0.005c0.002,0.002 0.004,0.003 0.005,0.004c-0.001,-0.001 -0.002,-0.002 -0.004,-0.003l-0.001,-0.001Zm-0.007,-0.005c0,0.001 0.001,0.001 0.002,0.002c-0.001,-0.001 -0.003,-0.002 -0.004,-0.003l0.002,0.001Zm-0.03,-0.02l0.001,0l-0.001,0l0,-0.001l0,0.001Zm-0.042,-0.032l0.001,0.001l-0.001,-0.001l-0.001,0l0.001,0Zm-0.002,-0.001l0.001,0l-0.001,0l-0.001,-0.001l0.001,0.001Zm-0.014,-0.011c0.003,0.002 0.006,0.004 0.009,0.006c-0.003,-0.002 -0.006,-0.004 -0.009,-0.006Zm-0.014,-0.012c0.001,0.001 0.001,0.001 0.002,0.002c-0.001,-0.001 -0.002,-0.002 -0.003,-0.003l0.001,0.001Zm-0.003,-0.002l0,0l0,0l-0.001,-0.001l0.001,0.001Zm-0.006,-0.005l0,0l0,0l-0.001,-0.001l0.001,0.001Zm-0.016,-0.014l0,0.001c0,-0.001 -0.001,-0.001 -0.001,-0.002l0.001,0.001Zm-0.084,-0.078l0.001,0.001c-0.001,-0.001 -0.002,-0.001 -0.002,-0.002l0.001,0.001Zm-0.016,-0.016l0,0c0,0 -0.001,-0.001 -0.001,-0.001l0.001,0.001Zm-0.005,-0.005l0.001,0.001c0,0 -0.001,-0.001 -0.002,-0.002l0.001,0.001Zm-0.016,-0.017c0.003,0.004 0.007,0.007 0.01,0.011c-0.003,-0.004 -0.006,-0.007 -0.009,-0.01l-0.001,-0.001Zm-0.013,-0.015l0.012,0.014c-0.004,-0.004 -0.007,-0.008 -0.011,-0.013l-0.001,-0.001Zm-0.009,-0.01l0.007,0.008c-0.002,-0.002 -0.004,-0.004 -0.006,-0.007l-0.001,-0.001Zm-0.002,-0.001c0.001,0 0.001,0 0.001,0l-0.001,0c0,-0.001 0,-0.001 -0.001,-0.001l0.001,0.001Zm-0.009,-0.011c0.001,0.002 0.003,0.003 0.005,0.005c-0.002,-0.001 -0.003,-0.003 -0.004,-0.004l-0.001,-0.001Zm-0.007,-0.008c0.001,0 0.001,0.001 0.002,0.002c-0.001,-0.001 -0.001,-0.002 -0.002,-0.002Zm-0.013,-0.016l0.001,0.001c-0.001,-0.001 -0.001,-0.001 -0.002,-0.002l0.001,0.001Zm-0.006,-0.008c0,0.001 0.001,0.002 0.001,0.003c0,-0.001 -0.001,-0.002 -0.001,-0.003Zm-0.011,-0.013c0.001,0.001 0.001,0.001 0.002,0.002c-0.001,-0.001 -0.001,-0.001 -0.002,-0.002Zm-0.004,-0.005l0.001,0.001c-0.001,-0.001 -0.002,-0.002 -0.002,-0.002l0.001,0.001Zm-0.014,-0.018c0.004,0.005 0.008,0.01 0.012,0.016l-0.001,-0.002c-0.003,-0.004 -0.007,-0.009 -0.011,-0.014Zm-0.007,-0.009c0.001,0.001 0.001,0.001 0.002,0.002c-0.001,-0.001 -0.001,-0.001 -0.002,-0.002Zm-0.01,-0.014c0.001,0.002 0.003,0.004 0.005,0.007c-0.002,-0.002 -0.003,-0.004 -0.005,-0.006l0,-0.001Zm-0.011,-0.015c0.001,0.001 0.002,0.002 0.002,0.003c0,-0.001 -0.001,-0.002 -0.002,-0.003Zm-0.004,-0.006c0.001,0.001 0.001,0.002 0.002,0.003c-0.001,-0.001 -0.001,-0.002 -0.002,-0.003Zm-0.005,-0.007c0.001,0.002 0.002,0.003 0.003,0.004c-0.001,-0.001 -0.002,-0.002 -0.003,-0.004Zm-0.014,-0.02c0.001,0.001 0.002,0.002 0.002,0.003c0,-0.001 -0.001,-0.002 -0.002,-0.003Zm-0.001,-0.002l0,0l0,0l-0.001,-0.001l0.001,0.001Zm-0.01,-0.015c0.001,0.001 0.002,0.003 0.003,0.004c-0.001,-0.001 -0.002,-0.003 -0.003,-0.004Zm0.479,-0.889l0,0c-0.015,0.038 -0.039,0.072 -0.048,0.111c-0.1,0.426 0.165,0.772 0.591,0.772c0.426,0 0.852,-0.346 0.951,-0.772c0.1,-0.425 -0.165,-0.771 -0.591,-0.771c-0.161,0 -0.316,0.06 -0.459,0.145l0,0c-0.151,0.175 -0.297,0.347 -0.444,0.515Zm-0.507,0.844l0.001,0.001l-0.001,-0.001l0,0l0,0Zm-0.005,-0.01c0,0.001 0.001,0.002 0.001,0.003c0,-0.001 -0.001,-0.002 -0.001,-0.003Zm-0.009,-0.015c0,0.001 0.001,0.002 0.001,0.003c0,-0.001 -0.001,-0.002 -0.001,-0.003Zm-0.002,-0.002l0,0c0,-0.001 0,-0.001 0,-0.001l0,0.001Zm-0.007,-0.013l0,0l0,0l0,-0.001l0,0.001Zm-0.006,-0.012c0,0.001 0.001,0.003 0.002,0.004l-0.001,-0.001c0,-0.001 0,-0.001 -0.001,-0.002l0,-0.001Zm-0.013,-0.023c0.004,0.007 0.008,0.015 0.012,0.022l0,-0.001c-0.004,-0.007 -0.008,-0.013 -0.011,-0.02l-0.001,-0.001Zm-0.004,-0.008c0.001,0.001 0.002,0.003 0.003,0.005l-0.001,-0.001c0,-0.001 -0.001,-0.003 -0.002,-0.004Zm-0.002,-0.004l0,0l0,0l0,-0.001l0,0.001Zm-0.002,-0.004c0.001,0.001 0.001,0.001 0.001,0.002l0,0l-0.001,-0.002Zm-0.001,-0.002c0.001,0.001 0.001,0.001 0.001,0.002l0,-0.001l-0.001,-0.001Zm-0.005,-0.011c0.001,0.002 0.001,0.003 0.002,0.005c-0.001,-0.002 -0.002,-0.004 -0.003,-0.006l0.001,0.001Zm-0.007,-0.014l0.003,0.006c-0.001,-0.002 -0.002,-0.003 -0.002,-0.005l-0.001,-0.001Zm-0.008,-0.018c0.001,0.002 0.002,0.005 0.003,0.007c-0.001,-0.002 -0.002,-0.005 -0.003,-0.007Zm-0.005,-0.011c0,0.001 0.001,0.003 0.002,0.005c-0.001,-0.002 -0.002,-0.004 -0.002,-0.005Zm-0.002,-0.003c0.001,0.001 0.001,0.001 0.001,0.002l-0.001,-0.002c0,0 0,-0.001 0,-0.001l0,0.001Zm-0.001,-0.003l0,0l0,0l-0.001,-0.002l0.001,0.002Zm-0.003,-0.006c0.001,0.001 0.001,0.002 0.001,0.002c0,0 0,-0.001 -0.001,-0.002Zm2.661,-1.036c0.001,0.002 0.002,0.004 0.002,0.006c0,-0.002 -0.001,-0.004 -0.002,-0.006Zm-0.012,-0.034c0.004,0.01 0.008,0.021 0.011,0.032l0,-0.002c-0.004,-0.01 -0.007,-0.02 -0.011,-0.03Zm-0.003,-0.007c0.001,0.001 0.001,0.003 0.002,0.004c-0.001,-0.001 -0.001,-0.003 -0.002,-0.004Zm-0.001,-0.002l0.001,0l-0.001,0l0,-0.002l0,0.002Zm-0.001,-0.005c0,0.001 0,0.001 0,0.002l0,-0.001l0,-0.001Zm-0.019,-0.046l0,0l0,0l0,-0.001l0,0.001Zm-0.004,-0.01c0,0.001 0.001,0.002 0.001,0.003c0,0 0,-0.001 -0.001,-0.002l0,-0.001Zm-0.003,-0.007l0,0.001l0,-0.001l-0.001,-0.001l0.001,0.001Zm-0.008,-0.018c0,0.001 0.001,0.002 0.001,0.003l-0.001,-0.001l0,-0.002Zm-0.011,-0.022c0.001,0.001 0.001,0.001 0.001,0.002c0,-0.001 0,-0.001 -0.001,-0.002Zm-0.003,-0.008c0,0.001 0.001,0.003 0.002,0.004c-0.001,-0.002 -0.002,-0.004 -0.003,-0.005l0.001,0.001Zm-0.015,-0.028c0.001,0.001 0.002,0.002 0.002,0.003c0,-0.001 -0.001,-0.002 -0.002,-0.003Zm-0.019,-0.037c0.005,0.01 0.011,0.02 0.016,0.031c-0.005,-0.011 -0.011,-0.021 -0.016,-0.031Zm-0.006,-0.011c0.001,0.003 0.003,0.006 0.005,0.009c-0.001,-0.002 -0.003,-0.005 -0.005,-0.008l0,-0.001Zm-0.001,-0.002l0,0.001l0,-0.001l-0.001,-0.001l0.001,0.001Zm-0.002,-0.003c0,0 0.001,0.001 0.001,0.002c-0.001,-0.001 -0.001,-0.002 -0.002,-0.003l0.001,0.001Zm-0.008,-0.015c0.001,0.002 0.002,0.005 0.003,0.007c-0.001,-0.003 -0.003,-0.005 -0.004,-0.008l0.001,0.001Zm-0.025,-0.04c0.008,0.012 0.015,0.024 0.022,0.036c-0.007,-0.012 -0.014,-0.024 -0.022,-0.036Zm-0.02,-0.031c0.007,0.01 0.013,0.02 0.02,0.03c-0.006,-0.01 -0.013,-0.019 -0.019,-0.029l-0.001,-0.001Zm-0.011,-0.017c0.003,0.005 0.007,0.01 0.01,0.016l0,-0.002c-0.004,-0.004 -0.007,-0.009 -0.01,-0.014Zm-0.028,-0.04l0,0.001l0,-0.001l-0.001,0l0.001,0Zm-0.006,-0.008l0.001,0.001c-0.001,0 -0.001,-0.001 -0.002,-0.002l0.001,0.001Zm-0.013,-0.017l0,0.001l0,-0.001l-0.001,-0.001l0.001,0.001Zm-0.006,-0.008c0.001,0.001 0.002,0.003 0.003,0.004c-0.001,-0.001 -0.002,-0.003 -0.003,-0.004Zm-0.005,-0.005l0.001,0l-0.001,0l0,-0.001l0,0.001Zm-0.003,-0.005l0,0.001l0,-0.001l-0.001,-0.001l0.001,0.001Zm-0.025,-0.03l0,0l0,0l-0.001,-0.001l0.001,0.001Zm-0.091,-0.098c0.001,0.001 0.002,0.002 0.003,0.003c0,-0.001 -0.001,-0.002 -0.002,-0.002l-0.001,-0.001Zm-0.002,-0.002c0.001,0 0.001,0 0.001,0.001l-0.001,-0.001c0,-0.001 0,-0.001 -0.001,-0.001l0.001,0.001Zm-0.003,-0.004l0,0.001c0,-0.001 -0.001,-0.001 -0.001,-0.002l0.001,0.001Zm-0.008,-0.008l0.006,0.006c-0.003,-0.002 -0.005,-0.004 -0.007,-0.007l0.001,0.001Zm-0.005,-0.004c0,0 0.001,0.001 0.002,0.001l-0.001,0c-0.001,-0.001 -0.002,-0.002 -0.002,-0.002l0.001,0.001Zm-0.025,-0.024c0.006,0.006 0.012,0.012 0.019,0.018c-0.007,-0.006 -0.013,-0.012 -0.019,-0.018Zm-0.017,-0.014c0.005,0.004 0.01,0.009 0.015,0.013c-0.005,-0.004 -0.01,-0.009 -0.015,-0.013Zm-0.007,-0.007l0.001,0.001c-0.001,0 -0.001,-0.001 -0.002,-0.001l0.001,0Zm-0.002,-0.002l0,0.001l0,-0.001l-0.001,0l0.001,0Zm-0.002,-0.001l0,0l0,0l-0.001,-0.001l0.001,0.001Zm-0.016,-0.014c0.004,0.003 0.007,0.006 0.011,0.01c-0.004,-0.004 -0.007,-0.007 -0.011,-0.01Zm-0.005,-0.004l0.001,0.001l-0.001,-0.001l-0.001,-0.001l0.001,0.001Zm-0.019,-0.015c0.001,0 0.002,0.001 0.003,0.002c-0.001,-0.001 -0.002,-0.002 -0.003,-0.002Zm-0.012,-0.01l0.001,0.001l-0.001,-0.001l-0.001,-0.001l0.001,0.001Zm-0.018,-0.013c0.001,0 0.001,0 0.001,0l-0.001,0c0,-0.001 -0.001,-0.001 -0.001,-0.001l0.001,0.001Zm-0.009,-0.007c0.001,0.001 0.003,0.002 0.004,0.002c-0.002,-0.001 -0.003,-0.002 -0.005,-0.003l0.001,0.001Zm-0.009,-0.007c0.001,0.001 0.003,0.002 0.004,0.003c-0.001,-0.001 -0.003,-0.002 -0.004,-0.003Zm-0.031,-0.022c0.001,0 0.001,0.001 0.002,0.001l-0.001,0l-0.001,-0.001Zm-0.006,-0.004c0.001,0 0.001,0.001 0.002,0.001l0,0l-0.002,-0.001Zm-0.008,-0.005c0.003,0.001 0.005,0.003 0.007,0.004l-0.001,0c-0.001,-0.001 -0.003,-0.002 -0.004,-0.003l-0.002,-0.001Zm-0.014,-0.01c0.001,0.001 0.003,0.002 0.004,0.003c-0.001,-0.001 -0.003,-0.002 -0.004,-0.003Zm-0.002,-0.001l0.001,0.001l-0.001,-0.001l0,0l0,0Zm-0.005,-0.003c0.001,0 0.002,0.001 0.004,0.002c-0.002,-0.001 -0.003,-0.002 -0.004,-0.002Zm-0.007,-0.005c0.002,0.001 0.003,0.002 0.005,0.003c-0.001,-0.001 -0.003,-0.001 -0.004,-0.002l-0.001,-0.001Zm-0.022,-0.014c0.004,0.003 0.008,0.005 0.012,0.007c-0.004,-0.002 -0.008,-0.004 -0.012,-0.007Zm-0.022,-0.013c0.007,0.004 0.014,0.008 0.021,0.013c-0.007,-0.005 -0.015,-0.009 -0.022,-0.014l0.001,0.001Zm-0.019,-0.011c0.006,0.003 0.011,0.006 0.016,0.009c-0.005,-0.003 -0.01,-0.006 -0.016,-0.009Zm-0.005,-0.003c0.001,0.001 0.002,0.001 0.003,0.002c-0.001,-0.001 -0.003,-0.002 -0.004,-0.002l0.001,0Zm-0.008,-0.004c0,0 0.001,0 0.002,0.001l-0.001,-0.001l-0.001,0Zm-0.013,-0.007c0.001,0 0.002,0.001 0.003,0.001c-0.001,0 -0.002,-0.001 -0.003,-0.001Zm-0.008,-0.005c0.001,0.001 0.001,0.001 0.002,0.001c-0.001,0 -0.002,-0.001 -0.003,-0.001l0.001,0Zm-0.01,-0.005c0.002,0.001 0.004,0.002 0.005,0.003c-0.002,-0.001 -0.004,-0.002 -0.006,-0.004l0.001,0.001Zm-0.018,-0.009c0.004,0.002 0.009,0.004 0.013,0.007l-0.001,-0.001c-0.004,-0.002 -0.007,-0.004 -0.011,-0.006l-0.001,0Zm-0.018,-0.009l0.016,0.008c-0.005,-0.003 -0.011,-0.006 -0.017,-0.009l0.001,0.001Zm-0.015,-0.007c0.004,0.002 0.009,0.004 0.013,0.006l-0.001,-0.001c-0.004,-0.001 -0.007,-0.003 -0.011,-0.005l-0.001,0Zm-0.009,-0.004l0.002,0l-0.002,0l0,-0.001l0,0.001Zm-0.003,-0.002c0,0 0.001,0.001 0.002,0.001l-0.001,-0.001l-0.001,0Zm-0.008,-0.003c0.002,0 0.004,0.001 0.006,0.002l-0.001,0c-0.002,-0.001 -0.003,-0.002 -0.005,-0.002Zm-0.01,-0.005l0.004,0.002c-0.002,-0.001 -0.003,-0.002 -0.004,-0.002Zm-0.004,-0.002c0.001,0 0.001,0.001 0.002,0.001l-0.001,0l-0.001,-0.001Zm-0.014,-0.006c0.003,0.001 0.005,0.002 0.008,0.003l-0.002,0c-0.002,-0.001 -0.004,-0.002 -0.006,-0.003Zm-0.005,-0.002l0,0l0,0l-0.001,-0.001l0.001,0.001Zm-0.017,-0.007c0.002,0.001 0.005,0.002 0.007,0.003c-0.003,-0.001 -0.006,-0.003 -0.008,-0.004l0.001,0.001Zm-16.736,-1.985c0,1.095 -0.887,1.983 -1.983,1.983c-1.096,0 -1.983,-0.888 -1.983,-1.983c0,-1.095 0.887,-1.983 1.983,-1.983c1.096,0 1.983,0.888 1.983,1.983Zm16.718,1.978c0.001,0 0.003,0.001 0.004,0.001c-0.001,0 -0.002,0 -0.003,-0.001l-0.001,0Zm-0.011,-0.004c0.003,0 0.005,0.001 0.007,0.002c-0.002,-0.001 -0.004,-0.002 -0.007,-0.002Zm-0.005,-0.003c0,0.001 0.001,0.001 0.001,0.001c0,0 -0.001,0 -0.001,-0.001Zm-0.009,-0.003l0.001,0l-0.001,0l-0.001,0l0.001,0Zm-0.009,-0.003l0.001,0l-0.001,0l-0.001,-0.001l0.001,0.001Zm-0.007,-0.003c0.001,0.001 0.001,0.001 0.002,0.001c-0.001,0 -0.002,-0.001 -0.003,-0.001l0.001,0Zm-0.007,-0.002c0.001,0 0.001,0 0.002,0l-0.002,0c0,0 0,0 -0.001,0l0.001,0Zm-0.031,-0.011c0.009,0.003 0.019,0.007 0.028,0.01c-0.009,-0.003 -0.019,-0.007 -0.028,-0.01Zm-0.005,-0.001c0.001,0 0.002,0 0.003,0.001c-0.001,-0.001 -0.002,-0.001 -0.003,-0.001Zm-0.006,-0.002c0.001,0 0.002,0.001 0.003,0.001c-0.001,0 -0.002,-0.001 -0.003,-0.001Zm-0.006,-0.002l0.001,0c-0.001,0 -0.001,0 -0.002,0l0.001,0Zm-0.005,-0.002l0,0l0,0l0,0l0,0Zm-0.011,-0.003c0.002,0.001 0.005,0.002 0.007,0.002c-0.002,0 -0.005,-0.001 -0.007,-0.002Zm-0.011,-0.003c0.001,0 0.002,0 0.003,0.001c-0.001,-0.001 -0.003,-0.001 -0.004,-0.002l0.001,0.001Zm-0.012,-0.004c0.003,0.001 0.005,0.002 0.007,0.003c-0.002,-0.001 -0.004,-0.002 -0.006,-0.002l-0.001,-0.001Zm-0.018,-0.005c0.002,0.001 0.004,0.002 0.006,0.002c-0.002,0 -0.004,-0.001 -0.006,-0.002Zm-0.004,-0.001l-0.001,0c0,0 0.001,0 0.001,0Zm94.265,-37.342c-1.197,7.053 -6.841,30.474 -33.593,29.907c-12.26,-0.26 -20.204,-5.26 -25.353,-11.532c-1.075,0.004 -2.352,0.06 -2.477,-0.104c-0.003,0.009 -0.005,0.017 -0.007,0.024c-0.072,0.215 1.325,0.151 2.484,0.147c5.149,6.27 13.093,11.272 25.353,11.532c26.829,0.568 32.429,-22.99 33.604,-29.968l-0.011,-0.006Zm-68.406,-7.672c-0.001,-0.001 -0.002,-0.002 -0.002,-0.002c0,0 0.001,0.023 0.002,0.068c0.002,0.001 0.003,0.003 0.003,0.003c0.012,0.271 0.049,0.933 0.148,1.898c0.834,0.461 2.288,1.131 4.841,2.06c5.657,2.057 8.447,1.763 8.447,1.763c0,0 -3.82,0.882 -8.153,0.072c-2.315,-0.431 -3.89,-1.154 -4.862,-1.736c0.207,1.392 0.514,3.061 0.966,4.903c0.786,0.351 2.009,0.774 3.822,1.094c3.746,0.661 6.611,0.587 6.611,0.587c0,0 -2.204,1.322 -6.611,0.882c-1.456,-0.146 -2.514,-0.349 -3.285,-0.553c0.332,1.152 0.722,2.349 1.177,3.571c0.619,0.164 1.289,0.309 1.888,0.361c1.689,0.146 5.214,0.146 5.214,0.146c0,0 -3.157,1.396 -4.994,1.396c-0.45,0 -0.913,-0.004 -1.356,-0.011c0.424,1.005 0.898,2.016 1.421,3.026c0.439,0.186 0.899,0.351 1.331,0.437c1.469,0.294 4.92,0.441 4.92,0.441c0,0 -1.982,1.277 -5.048,1.271c0.519,0.863 1.079,1.718 1.685,2.557c0.714,0.191 1.687,0.432 2.041,0.432c0.589,0 2.572,-0.22 2.572,-0.22c0,0 -2.055,1.468 -3.233,1.468c-0.027,0 -0.057,0.001 -0.086,0.001c5.149,6.271 13.094,11.272 25.354,11.532c26.685,0.565 32.365,-22.732 33.583,-29.847l0.01,0.005c0.004,-0.02 0.008,-0.041 0.011,-0.059l-0.011,-0.006c-0.004,0.02 -0.007,0.041 -0.01,0.06l-3.946,-2.192c0,0 0.074,0.22 -0.697,1.91c-0.753,1.651 -5.158,14.153 -21.378,15.008c-0.004,-0.021 -0.008,-0.043 -0.012,-0.064c-0.004,0 -0.009,0 -0.013,0c0.005,0.02 0.009,0.042 0.013,0.065c0.004,0 0.007,0 0.012,-0.001c0.106,0.567 0.167,1.652 -0.07,3.736c-0.441,3.893 -1.911,5.141 -1.911,5.141c0,0 0.661,-1.909 0.661,-6.022c0,-1.63 -0.081,-2.491 -0.178,-2.946c-0.013,0 -0.024,-0.001 -0.037,-0.001c-0.029,-0.104 -0.058,-0.187 -0.087,-0.243l-0.042,0.002c-0.093,-0.098 -0.169,0.008 -0.169,0.008l0.169,-0.008c0.035,0.037 0.073,0.121 0.11,0.24c0.006,0 0.013,0 0.019,0c0.013,0.046 0.026,0.076 0.038,0.134c-0.843,0 -1.642,-0.054 -2.403,-0.16c0.007,0.33 -0.006,0.739 -0.064,1.284c-0.22,2.057 -1.174,3.012 -1.174,3.012c0,0 0.441,-1.47 0.441,-3.012c0,-0.599 -0.056,-1.137 -0.125,-1.578c-0.007,-0.002 -0.015,-0.005 -0.022,-0.006c-0.077,-0.456 -0.162,-0.789 -0.2,-0.929l-0.021,-0.006c0,0 0.109,0.363 0.209,0.933c0.004,0 0.008,0.001 0.012,0.002c0.007,0.048 0.016,0.087 0.024,0.138c-13.081,-2.634 -13.212,-20.747 -13.208,-21.814l0,-0.056c-0.002,0.001 -5.4,3.911 -12.671,3.911c-6.79,0 -11.617,-3.97 -11.673,-4.017c-0.001,-0.027 -0.002,-0.05 -0.003,-0.069Zm3.182,19.524c-0.01,0.887 0.368,2.186 2.618,2.329c0.233,0.015 0.458,0.022 0.68,0.022c0.501,0.835 1.043,1.662 1.625,2.475c0.02,0.005 0.04,0.01 0.06,0.016c-0.606,-0.838 -1.167,-1.693 -1.685,-2.557c-0.222,-0.001 -0.447,-0.007 -0.68,-0.021c-2.195,-0.14 -2.608,-1.38 -2.618,-2.264Zm35.292,2.616l-0.001,0c0.001,0.021 0.001,0.043 0.001,0.066l0.001,0c0,-0.021 0,-0.044 -0.001,-0.066Zm2.237,-0.28l-0.169,0.008c0,0 0.076,-0.106 0.169,-0.008Zm-39.677,-7.716c-0.005,-0.002 -0.008,-0.003 -0.008,-0.003l0.294,2.498c0,0 1.171,0.041 2.536,0.062c0.412,0.975 0.871,1.959 1.377,2.94c0.015,0.006 0.03,0.013 0.044,0.019c-0.523,-1.009 -0.997,-2.021 -1.421,-3.025c-1.365,-0.021 -2.536,-0.063 -2.536,-0.063l-0.286,-2.428Zm-1.029,-3.807l-0.007,0.058c0,0 0.368,0.429 1.929,0.844c0.326,1.128 0.706,2.299 1.149,3.495c0.009,0.003 0.019,0.005 0.028,0.008c-0.455,-1.222 -0.845,-2.419 -1.177,-3.57c-1.44,-0.383 -1.865,-0.777 -1.922,-0.835Zm-28.58,-22.19l5.068,-4.333l-4.773,-3.379l3.378,-4.921l-5.582,-2.792l0.514,-6.316l-6.463,1.396l-0.295,-6.831l-5.802,2.717l-3.599,-6.316l-4.554,4.994l-3.893,-4.113l-2.938,5.582l-6.61,-3.158l-0.074,5.655l-7.125,-0.146l2.131,6.316l-6.097,2.792l3.82,5.288l-5.583,3.305l5.729,4.114l-3.966,5.141l6.317,1.616l-2.277,6.317l7.125,0.367l-0.221,5.435l6.097,-2.57l3.526,5.802l4.407,-4.187l4.994,4.187l2.35,-5.656l5.95,2.644l0.808,-5.875l6.023,-0.295l-0.882,-5.949l4.995,-1.469l-2.498,-5.362Zm27.624,13.224c-0.004,-0.007 -0.006,-0.01 -0.006,-0.01l0.146,2.057c0,0 0.388,0.399 1.235,0.906c0.205,1.374 0.506,3.017 0.949,4.829c0.006,0.003 0.012,0.006 0.018,0.009c-0.453,-1.843 -0.76,-3.511 -0.967,-4.904c-0.847,-0.507 -1.235,-0.907 -1.235,-0.907l-0.14,-1.98Zm0.729,-4.943c0,0.004 -0.001,0.008 -0.001,0.012c0,3.286 5.526,5.949 12.34,5.949c6.814,0 12.34,-2.663 12.34,-5.949c0,-0.004 0,-0.008 -0.001,-0.012c-0.061,3.261 -5.563,5.895 -12.339,5.895c-6.776,0 -12.278,-2.634 -12.339,-5.895Zm24.678,-0.176c-0.001,0.019 -0.006,0.036 -0.006,0.056c-0.075,-3.256 -5.565,-5.884 -12.333,-5.884c-6.768,0 -12.258,2.628 -12.333,5.884c0,-0.02 -0.004,-0.037 -0.006,-0.056c0,0.019 -0.001,0.037 -0.001,0.056c0,0.01 0.002,0.021 0.004,0.031c0.001,-0.01 0.003,-0.021 0.003,-0.031c0.075,3.254 5.564,5.883 12.333,5.883c6.767,0 12.258,-2.629 12.333,-5.883c0,0.01 0.002,0.021 0.003,0.031c0.002,-0.01 0.004,-0.021 0.004,-0.031c0,-0.019 0,-0.037 -0.001,-0.056Zm-24.456,3.88l-0.002,-0.002c0,0 0.019,0.723 0.146,1.965c0.002,0.001 0.005,0.003 0.007,0.004c-0.11,-1.06 -0.143,-1.756 -0.151,-1.967Zm-61.033,-11.03l-3.195,0c1.559,4.171 4.959,7.444 9.211,8.829l0,-3.133c-2.629,-1.107 -4.772,-3.142 -6.016,-5.696Zm24.336,0l-3.195,0c-1.15,2.361 -3.068,4.279 -5.429,5.429l0,3.195c3.977,-1.486 7.138,-4.647 8.624,-8.624Zm-8.624,-18.906l0,3.194c2.601,1.268 4.664,3.467 5.756,6.164l3.12,0c-1.357,-4.321 -4.657,-7.782 -8.876,-9.358Zm-9.696,-0.206c-4.499,1.466 -8.044,5.044 -9.464,9.564l3.121,0c1.172,-2.897 3.466,-5.22 6.343,-6.43l0,-3.134Zm123.204,-36.576c-1.197,7.051 -6.841,30.473 -33.594,29.907c-12.261,-0.26 -20.204,-5.261 -25.353,-11.531c-1.076,0.003 -2.355,0.059 -2.477,-0.105c-0.003,0.009 -0.005,0.017 -0.008,0.024c-0.071,0.215 1.325,0.15 2.484,0.147c5.149,6.27 13.094,11.272 25.354,11.531c26.829,0.569 32.428,-22.989 33.603,-29.967l-0.009,-0.006Zm-68.407,-7.672c-0.002,-0.001 -0.003,-0.002 -0.003,-0.002c0,0 0.001,0.023 0.003,0.068l0.002,0.002c0.012,0.271 0.049,0.935 0.148,1.898c0.835,0.461 2.288,1.133 4.842,2.061c5.657,2.056 8.447,1.763 8.447,1.763c0,0 -3.82,0.881 -8.153,0.072c-2.315,-0.431 -3.89,-1.154 -4.862,-1.736c0.207,1.392 0.514,3.061 0.966,4.903c0.785,0.351 2.009,0.774 3.822,1.094c3.746,0.661 6.611,0.587 6.611,0.587c0,0 -2.204,1.322 -6.611,0.881c-1.457,-0.145 -2.514,-0.347 -3.285,-0.553c0.332,1.152 0.721,2.349 1.177,3.572c0.619,0.165 1.289,0.309 1.888,0.36c1.689,0.147 5.214,0.147 5.214,0.147c0,0 -3.157,1.396 -4.994,1.396c-0.45,0 -0.913,-0.005 -1.356,-0.011c0.424,1.004 0.898,2.016 1.421,3.025c0.439,0.186 0.899,0.352 1.331,0.437c1.469,0.295 4.92,0.441 4.92,0.441c0,0 -1.982,1.278 -5.049,1.272c0.52,0.863 1.08,1.718 1.685,2.556c0.715,0.191 1.687,0.433 2.042,0.433c0.589,0 2.572,-0.221 2.572,-0.221c0,0 -2.055,1.469 -3.233,1.469c-0.012,0 -0.025,0 -0.038,0l-0.011,0c-0.012,0.001 -0.025,0.001 -0.037,0.001c5.149,6.271 13.093,11.271 25.354,11.531c26.685,0.565 32.364,-22.73 33.582,-29.847l0.011,0.006c0.003,-0.02 0.007,-0.041 0.01,-0.06l-0.01,-0.006c-0.004,0.021 -0.008,0.041 -0.011,0.06l-3.945,-2.191c0,0 0.073,0.22 -0.697,1.91c-0.753,1.651 -5.158,14.153 -21.379,15.008c0.106,0.567 0.168,1.652 -0.069,3.736c-0.441,3.892 -1.911,5.141 -1.911,5.141c0,0 0.661,-1.91 0.661,-6.022c0,-1.63 -0.081,-2.491 -0.178,-2.947c-0.013,0 -0.025,-0.001 -0.037,-0.001c-0.029,-0.103 -0.059,-0.186 -0.087,-0.243l-0.043,0.002c-0.092,-0.097 -0.168,0.008 -0.168,0.008l0.168,-0.008c0.036,0.038 0.073,0.122 0.11,0.241c0.007,0 0.013,0 0.02,0c0.013,0.046 0.025,0.076 0.038,0.134c-0.843,-0.001 -1.642,-0.054 -2.403,-0.16c0.007,0.33 -0.006,0.739 -0.064,1.283c-0.221,2.057 -1.174,3.013 -1.174,3.013c0,0 0.44,-1.47 0.44,-3.013c0,-0.598 -0.055,-1.137 -0.124,-1.577c-0.007,-0.002 -0.015,-0.005 -0.023,-0.007c-0.076,-0.455 -0.162,-0.789 -0.2,-0.928l-0.02,-0.006c0,0 0.109,0.363 0.208,0.932c0.004,0.001 0.009,0.002 0.013,0.003c0.007,0.048 0.015,0.087 0.023,0.138c-13.08,-2.635 -13.212,-20.747 -13.208,-21.814l0,-0.057c-0.001,0.002 -5.4,3.912 -12.67,3.912c-6.79,0 -11.617,-3.971 -11.673,-4.017c-0.001,-0.027 -0.002,-0.05 -0.003,-0.069Zm-79.641,-9.507c-0.694,-0.085 -1.396,-0.143 -2.112,-0.143c-9.492,0 -17.188,7.695 -17.188,17.188c0,9.492 7.696,17.187 17.188,17.187c9.492,0 17.187,-7.695 17.187,-17.187c0,-1.8 -0.278,-3.534 -0.791,-5.164c0.161,-0.23 2.191,-2.999 7.328,-4.899c5.362,-1.983 12.267,-2.718 12.267,-2.718l0,-4.333l-33.879,0.069Zm82.823,29.015c-0.014,0.887 0.354,2.201 2.618,2.345c0.232,0.015 0.458,0.021 0.679,0.021c0.501,0.836 1.043,1.663 1.626,2.475c0.019,0.006 0.039,0.011 0.059,0.016c-0.605,-0.838 -1.166,-1.693 -1.685,-2.557c-0.222,0 -0.447,-0.006 -0.679,-0.021c-2.208,-0.141 -2.613,-1.394 -2.618,-2.279Zm39.181,2.753c-0.005,0.001 -0.009,0.001 -0.013,0.001c0.004,0.02 0.008,0.042 0.012,0.065c0.004,0 0.008,-0.001 0.012,-0.001c-0.004,-0.021 -0.008,-0.043 -0.011,-0.065Zm-3.889,-0.121l-0.002,0c0.001,0.021 0.002,0.043 0.002,0.066l0.001,0c0,-0.022 -0.001,-0.044 -0.001,-0.066Zm2.236,-0.28l-0.168,0.008c0,0 0.076,-0.107 0.168,-0.008Zm-39.676,-7.716c-0.005,-0.002 -0.008,-0.003 -0.008,-0.003l0.293,2.498c0,0 1.172,0.041 2.536,0.061c0.413,0.976 0.872,1.96 1.378,2.941c0.015,0.007 0.03,0.013 0.044,0.019c-0.523,-1.009 -0.997,-2.022 -1.421,-3.026c-1.365,-0.02 -2.536,-0.062 -2.536,-0.062l-0.286,-2.428Zm-1.03,-3.808l-0.007,0.059c0,0 0.369,0.428 1.93,0.843c0.325,1.128 0.706,2.301 1.149,3.497c0.009,0.002 0.019,0.005 0.028,0.007c-0.456,-1.222 -0.845,-2.419 -1.177,-3.571c-1.443,-0.382 -1.867,-0.777 -1.923,-0.835Zm-0.955,-8.964c-0.005,-0.008 -0.006,-0.012 -0.006,-0.012l0.146,2.058c0,0 0.388,0.399 1.235,0.906c0.204,1.373 0.505,3.016 0.948,4.829c0.007,0.002 0.013,0.005 0.019,0.008c-0.453,-1.841 -0.76,-3.511 -0.967,-4.903c-0.847,-0.507 -1.235,-0.907 -1.235,-0.907l-0.14,-1.979Zm25.407,-4.944c-0.061,3.261 -5.563,5.895 -12.339,5.895c-6.777,0 -12.279,-2.634 -12.339,-5.895c-0.001,0.004 -0.001,0.008 -0.001,0.012c0,3.285 5.526,5.949 12.34,5.949c6.814,0 12.339,-2.664 12.339,-5.949c0,-0.004 0,-0.008 0,-0.012Zm0,-0.176c-0.002,0.018 -0.007,0.036 -0.007,0.055c-0.075,-3.255 -5.564,-5.883 -12.332,-5.883c-6.769,0 -12.258,2.628 -12.333,5.883c0,-0.019 -0.005,-0.037 -0.006,-0.055c-0.001,0.019 -0.001,0.037 -0.001,0.055c0,0.011 0.002,0.022 0.003,0.032c0.002,-0.01 0.004,-0.021 0.004,-0.032c0.075,3.254 5.564,5.884 12.333,5.884c6.767,0 12.257,-2.63 12.332,-5.884c0.001,0.011 0.002,0.022 0.004,0.032c0.002,-0.01 0.003,-0.021 0.003,-0.032c0,-0.018 0,-0.036 0,-0.055Zm-24.456,3.88l-0.003,-0.002c0,0 0.02,0.723 0.147,1.965c0.002,0.001 0.004,0.002 0.006,0.003c-0.109,-1.058 -0.142,-1.754 -0.15,-1.966Z" style="fill:#fff;"/></g><text x="633.52px" y="1397.95px" style="font-family:'FuturaLT-Book', 'Futura LT';font-size:259.679px;fill:#fff;">hajraa</text></g><g><g><path d="M471.686,310.102c0.299,0.797 0.698,1.494 1.395,3.088c13.848,-40.946 31.183,-81.094 56.187,-116.858c-20.522,41.046 -33.274,85.177 -41.941,129.809c11.856,-2.192 22.515,-5.181 32.377,-9.863c17.534,-8.269 30.286,-21.021 37.258,-40.747c5.878,-16.737 7.572,-35.167 7.173,-54.494c-0.398,-21.419 -1.295,-43.037 -1.096,-64.756c0.1,-16.239 1.096,-32.476 5.978,-47.72c0.797,-2.59 1.793,-5.08 2.989,-8.468c-7.771,2.69 -15.143,4.683 -21.818,7.97c-12.154,5.778 -24.407,11.656 -35.465,19.327c-47.72,32.777 -68.143,82.588 -55.093,143.259c2.69,13.15 7.771,26.299 12.055,39.451l0.001,0.002Z" style="fill:#fff;fill-rule:nonzero;"/><path d="M623.127,322.165c10.759,-0.897 20.323,-4.085 29.788,-7.671c13.051,-4.882 25.802,-10.56 40.048,-12.254c0.199,0 0.199,-0.299 0.498,-0.598c-1.295,-1.295 -2.49,-2.59 -3.785,-3.785c-19.128,-18.132 -39.949,-32.178 -63.461,-38.057c-26.6,-6.675 -48.317,1.096 -63.361,21.619c-0.498,0.697 -0.897,1.494 -1.793,3.287c29.487,-7.372 59.474,-3.088 89.163,7.671c-27.695,-6.276 -55.392,-7.77 -81.094,1.395c17.633,22.415 35.863,29.788 53.996,28.393l0.001,0Z" style="fill:#fff;fill-rule:nonzero;"/><path d="M603.285,212.678c9.165,2.192 17.833,3.586 26.7,3.786c15.74,0.299 29.788,-3.587 42.341,-13.15c10.659,-8.169 18.828,-18.431 25.802,-29.888c7.77,-12.752 15.342,-25.703 23.71,-38.355c6.276,-9.464 12.951,-18.729 22.316,-26.2c1.594,-1.295 2.989,-2.391 5.678,-4.184c-6.874,-0.697 -12.154,-1.893 -17.932,-2.092c-10.261,-0.299 -20.522,-0.697 -30.783,0.399c-43.733,4.682 -76.908,27.995 -93.447,68.143c-3.686,8.866 -5.679,18.231 -8.269,27.396c-0.199,0.498 -0.199,1.095 -0.299,2.191c26.799,-20.223 54.494,-38.852 84.978,-52.402c-29.689,18.032 -55.988,40.347 -80.795,64.356l0,0Z" style="fill:#fff;fill-rule:nonzero;"/><path d="M249.933,565.724c0.498,0.598 1.195,1.196 2.391,2.391c-1.395,-43.137 1.892,-87.171 14.545,-129.51c-6.775,45.927 -4.284,92.053 3.287,136.684c10.361,-6.176 19.228,-12.453 26.799,-20.124c13.649,-13.548 21.22,-29.487 21.32,-50.31c0.1,-17.634 -4.085,-35.665 -10.56,-53.897c-7.073,-20.224 -14.446,-40.648 -20.821,-61.568c-4.782,-15.641 -8.668,-31.482 -8.369,-47.72c0,-2.69 0.2,-5.38 0.399,-9.066c-6.774,4.981 -13.25,9.265 -18.829,14.545c-10.062,9.464 -20.124,19.128 -28.592,30.087c-36.363,47.321 -39.849,102.912 -6.874,155.612c7.273,11.457 16.637,22.017 25.304,32.877l0,-0.001Z" style="fill:#fff;fill-rule:nonzero;"/><path d="M411.523,492.325c-27.995,2.092 -54.593,9.066 -75.715,25.702c24.01,15.641 43.436,17.036 59.875,10.361c9.763,-3.985 17.634,-9.763 25.404,-15.84c10.66,-8.368 20.921,-17.235 33.672,-22.913c0.1,-0.1 0.2,-0.299 0.299,-0.698c-1.594,-0.896 -3.088,-1.793 -4.682,-2.59c-23.511,-11.755 -47.521,-19.127 -71.53,-17.733c-27.197,1.495 -45.427,15.741 -52.899,39.75c-0.299,0.797 -0.299,1.694 -0.698,3.587c25.404,-16.239 54.991,-21.22 86.274,-19.626l0,0Z" style="fill:#fff;fill-rule:nonzero;"/><path d="M334.809,420.787c19.426,-27.495 40.647,-53.499 66.049,-75.314c-23.213,25.802 -41.841,54.891 -58.281,85.378c9.464,-0.697 18.132,-1.992 26.501,-4.483c15.043,-4.384 27.296,-12.154 36.462,-24.906c7.771,-10.859 12.553,-23.112 16.04,-36.064c3.786,-14.446 7.372,-28.99 11.656,-43.535c3.188,-10.859 6.874,-21.618 13.25,-31.382l3.686,-5.38c-5.978,0.996 -11.656,1.494 -17.036,2.889c-9.763,2.59 -19.626,5.181 -28.99,9.166c-40.347,16.836 -65.85,49.214 -69.836,92.649c-0.897,9.564 -0.1,19.128 0.199,28.692c-0.1,0.597 0.099,1.095 0.299,2.291l0.001,-0.001Z" style="fill:#fff;fill-rule:nonzero;"/><path d="M109.561,867.304c11.457,7.572 24.308,13.25 36.661,19.526c0.698,0.399 1.594,0.598 3.089,1.196c-19.228,-38.654 -34.67,-80.097 -40.248,-124.231c12.453,45.129 33.971,85.975 59.375,123.333c6.874,-9.863 12.254,-19.327 16.04,-29.388c6.774,-17.932 6.973,-35.465 -1.395,-54.493c-7.173,-16.139 -18.331,-30.783 -31.581,-44.93c-14.645,-15.641 -29.589,-31.482 -43.734,-48.317c-10.56,-12.552 -20.323,-25.802 -26.401,-41.145c-0.996,-2.59 -1.893,-5.18 -3.088,-8.667c-4.284,7.472 -8.667,14.147 -11.756,21.32c-5.579,12.951 -11.158,26.2 -14.445,39.949c-7.273,29.487 -5.878,57.681 3.785,82.389c9.763,24.906 27.794,46.325 53.698,63.461l0,-0.003Z" style="fill:#fff;fill-rule:nonzero;"/><path d="M301.526,736.292c0.1,-0.099 0,-0.299 0,-0.797c-1.793,-0.199 -3.586,-0.498 -5.28,-0.598c-26.199,-1.892 -51.007,0.598 -72.527,11.158c-24.308,12.055 -35.167,32.377 -32.178,57.284c0.1,0.896 0.399,1.693 0.897,3.586c16.438,-25.204 41.543,-41.543 70.632,-52.004c-24.706,12.652 -46.126,29.487 -58.579,53.198c28.294,4.483 46.524,-2.192 58.778,-14.645c7.273,-7.372 12.055,-15.74 16.637,-24.109c6.476,-11.456 12.154,-23.312 21.619,-33.075l0.001,0.002Z" style="fill:#fff;fill-rule:nonzero;"/><path d="M163.169,717.853c0.2,0.498 0.598,0.996 1.196,1.893c6.974,-33.076 16.637,-65.452 32.078,-95.241c-11.954,32.778 -18.031,67.047 -21.02,101.418c8.368,-4.384 15.84,-8.966 22.614,-14.545c12.055,-9.962 20.324,-21.718 23.91,-36.86c2.989,-12.852 2.889,-26.001 1.195,-39.253c-1.892,-14.744 -3.885,-29.689 -5.18,-44.83c-0.896,-11.357 -1.195,-22.814 1.395,-34.17l1.594,-6.376c-5.28,3.088 -10.361,5.579 -14.944,8.867c-8.268,5.977 -16.537,12.054 -24.009,19.227c-31.88,30.982 -43.535,71.63 -30.286,113.371c2.889,9.265 7.472,17.833 11.457,26.501l0,-0.002Z" style="fill:#fff;fill-rule:nonzero;"/><path d="M179.696,1223.26c0.797,0.099 1.693,-0.1 3.287,-0.1c-32.675,-28.194 -62.761,-60.67 -85.077,-98.926c28.891,36.463 64.555,66.151 102.412,90.658c2.491,-11.756 3.786,-22.515 3.487,-33.275c-0.697,-19.127 -7.173,-35.465 -22.316,-49.811c-12.851,-12.154 -28.89,-21.319 -46.523,-29.089c-19.626,-8.667 -39.551,-17.335 -59.176,-26.998c-14.645,-7.273 -28.891,-15.342 -40.546,-26.7c-1.893,-1.893 -3.786,-3.885 -6.376,-6.575c-0.996,8.368 -2.291,16.039 -2.291,23.71c0.1,13.848 0.1,27.896 2.391,41.643c4.882,29.487 16.836,54.692 35.366,73.72c18.43,19.128 43.335,31.979 73.919,37.858c13.549,2.59 27.595,2.889 41.444,3.885l-0.001,0Z" style="fill:#fff;fill-rule:nonzero;"/><path d="M263.781,1022.21c0,-0.1 -0.099,-0.299 -0.299,-0.697c-1.693,0.597 -3.387,0.996 -5.081,1.693c-24.706,9.066 -46.424,21.419 -61.966,39.85c-17.533,20.821 -19.625,43.835 -7.172,65.651c0.398,0.697 0.996,1.395 2.191,2.989c5.38,-29.59 22.017,-54.693 44.632,-76.213c-17.634,21.718 -30.783,45.828 -33.076,72.627c27.794,-6.874 42.04,-20.025 48.416,-36.562c3.786,-9.763 4.882,-19.427 5.878,-29.189c1.394,-13.449 1.793,-26.998 6.475,-40.148l0.002,-0.001Z" style="fill:#fff;fill-rule:nonzero;"/><path d="M144.118,1063.55c5.978,-7.372 10.959,-14.545 14.944,-22.415c7.073,-13.947 9.863,-28.194 6.874,-43.535c-2.491,-13.05 -8.07,-24.906 -15.043,-36.363c-7.771,-12.652 -15.84,-25.404 -23.312,-38.653c-5.579,-9.863 -10.66,-20.224 -13.051,-31.681l-1.195,-6.475c-3.586,4.981 -7.173,9.365 -9.962,14.346c-4.981,8.866 -10.062,17.832 -13.748,27.495c-16.04,41.344 -10.062,82.588 18.828,115.264c6.376,7.172 13.948,13.15 21.021,19.526c0.399,0.398 0.897,0.597 1.893,1.295c-6.774,-32.976 -11.158,-66.35 -9.365,-99.824c2.79,34.67 11.158,68.342 22.117,101.017l-0.001,0.003Z" style="fill:#fff;fill-rule:nonzero;"/><path d="M354.242,1511.55c-41.841,-10.46 -83.384,-25.802 -120.545,-50.907c42.341,20.422 87.37,30.882 132.3,35.664c-3.088,-11.556 -6.675,-21.818 -11.855,-31.283c-9.166,-16.737 -22.216,-28.294 -42.04,-34.371c-16.837,-5.081 -35.267,-6.276 -54.593,-5.679c-21.419,0.698 -43.236,1.395 -65.254,0.797c-16.338,-0.498 -32.876,-1.992 -48.416,-7.77c-2.59,-0.997 -5.18,-1.993 -8.667,-3.487c2.789,8.269 4.882,16.039 8.269,23.212c6.177,12.951 12.453,26.001 20.722,37.659c17.633,25.204 39.948,42.838 65.154,51.905c25.204,9.065 53.297,9.464 83.284,0.896c13.15,-3.786 25.902,-9.863 38.653,-15.242c0.797,-0.1 1.495,-0.598 2.989,-1.395l-0.001,0.001Z" style="fill:#fff;fill-rule:nonzero;"/><path d="M329.733,1417.83c21.918,-18.431 28.891,-36.463 27.695,-53.698c-0.698,-10.162 -3.686,-19.228 -6.874,-28.095c-4.384,-12.254 -9.365,-24.208 -10.261,-37.559c0,-0.1 -0.2,-0.199 -0.498,-0.498c-1.296,1.195 -2.69,2.391 -3.985,3.586c-18.829,18.231 -33.573,38.355 -39.85,61.367c-7.073,26.1 0.997,47.72 21.718,61.568c0.697,0.498 1.494,0.797 3.288,1.694c-8.169,-28.791 -3.885,-58.381 7.671,-86.973c-6.974,26.601 -8.568,53.798 1.096,78.602l0,0.006Z" style="fill:#fff;fill-rule:nonzero;"/><path d="M252.917,1359.24c0.597,-15.641 -2.69,-29.487 -11.557,-42.239c-7.571,-10.859 -17.334,-19.427 -28.393,-27.098c-12.154,-8.468 -24.607,-17.035 -36.661,-26.401c-9.066,-6.974 -17.634,-14.545 -24.308,-24.109l-3.586,-5.479c-1.395,5.978 -2.989,11.457 -3.587,17.036c-1.195,10.161 -2.291,20.422 -1.992,30.882c1.494,44.631 24.109,80.895 64.256,98.826c8.867,3.985 18.231,6.276 27.396,8.966c0.498,0.2 1.096,0.2 2.192,0.399c-20.224,-27.098 -37.957,-55.988 -49.712,-87.569c16.338,30.882 37.858,58.38 61.767,83.384c2.391,-9.265 3.886,-17.833 4.184,-26.601l0.001,0.003Z" style="fill:#fff;fill-rule:nonzero;"/><path d="M631.492,1703.34c-42.938,5.181 -86.572,7.073 -129.91,-0.398c46.225,1.195 91.453,-6.476 135.388,-17.932c-7.173,-9.763 -14.445,-18.032 -22.913,-24.906c-15.043,-12.254 -31.979,-18.132 -52.701,-15.94c-17.633,1.893 -34.968,8.169 -52.303,16.737c-19.227,9.464 -38.653,19.227 -58.579,28.095c-14.944,6.575 -30.285,12.353 -46.524,13.947c-2.689,0.299 -5.379,0.399 -9.165,0.598c5.878,6.177 10.859,12.154 16.737,17.035c10.659,8.867 21.419,17.733 33.274,24.807c51.107,30.186 105.004,26.898 154.019,-11.158c10.859,-8.368 20.423,-18.63 30.484,-28.194c0.598,-0.698 1.096,-1.395 2.192,-2.69l0.001,-0.001Z" style="fill:#fff;fill-rule:nonzero;"/><path d="M575.588,1564.47c-5.18,-9.265 -11.955,-16.438 -18.928,-23.411c-9.564,-9.664 -19.626,-18.63 -26.601,-30.584c-0.099,-0.1 -0.299,-0.1 -0.697,-0.199c-0.697,1.693 -1.395,3.287 -1.993,4.981c-8.966,24.706 -13.449,49.313 -9.165,73.024c4.782,26.799 21.12,43.236 45.927,47.919c0.896,0.199 1.793,0.099 3.686,0.299c-19.228,-23.412 -27.896,-52.303 -29.987,-83.484c5.379,27.496 15.641,53.099 34.769,72.425c12.752,-25.702 11.755,-45.327 2.989,-60.969l0,-0.001Z" style="fill:#fff;fill-rule:nonzero;"/><path d="M473.778,1638.28c0.597,-0.1 1.096,-0.299 2.191,-0.598c-29.589,-16.04 -58.079,-34.07 -82.488,-57.085c28.293,20.423 59.474,35.565 91.654,48.217c-1.793,-9.265 -4.084,-17.733 -7.571,-25.802c-6.177,-14.445 -15.243,-25.603 -28.891,-33.274c-11.655,-6.476 -24.208,-9.863 -37.459,-11.855c-14.744,-2.192 -29.589,-4.284 -44.532,-7.173c-11.158,-2.192 -22.316,-4.981 -32.576,-10.56l-5.678,-3.288c1.494,5.978 2.49,11.557 4.483,16.837c3.486,9.563 7.172,19.227 12.054,28.393c21.22,39.051 56.886,61.068 100.52,59.875c9.365,-0.299 18.829,-2.292 28.294,-3.686l-0.001,-0.001Z" style="fill:#fff;fill-rule:nonzero;"/><path d="M926.976,1768.58c-17.732,-8.269 -35.965,-9.764 -55.59,-2.292c-16.637,6.376 -31.78,17.136 -46.026,30.087c-15.84,14.346 -31.581,29.189 -47.919,43.435c-12.253,10.66 -24.905,20.622 -39.451,27.197c-2.391,1.096 -4.882,1.992 -8.269,3.387c7.073,3.985 13.35,8.169 20.124,11.058c12.154,5.18 24.507,10.56 37.258,13.848c54.991,14.246 104.506,-2.491 142.861,-51.107c8.468,-10.66 15.442,-23.013 22.913,-34.57c0.399,-0.697 0.698,-1.494 1.495,-2.989c-40.648,15.043 -81.989,27.695 -124.927,32.178c44.134,-11.457 85.677,-30.086 126.123,-51.405c-9.464,-7.771 -18.63,-14.146 -28.592,-18.829l0,0.002Z" style="fill:#fff;fill-rule:nonzero;"/><path d="M871.889,1757.84c0.896,-0.099 1.793,-0.298 3.686,-0.697c-25.006,-17.733 -41.642,-43.137 -53.298,-72.626c13.848,25.005 31.084,47.023 54.991,60.67c5.679,-28.095 -0.697,-46.723 -13.947,-59.673c-7.87,-7.572 -16.837,-12.752 -25.902,-17.634c-12.552,-6.774 -25.404,-12.652 -36.363,-22.216c-0.099,-0.099 -0.398,0 -0.797,0c-0.099,1.794 -0.298,3.587 -0.398,5.38c-0.797,26.401 2.59,51.306 13.748,72.925c12.652,24.507 32.877,35.764 58.281,33.871l-0.001,0Z" style="fill:#fff;fill-rule:nonzero;"/><path d="M785.304,1784.62c0.498,-0.199 0.897,-0.597 1.893,-1.195c-32.877,-6.774 -65.055,-15.143 -95.44,-28.692c33.175,9.962 67.146,14.744 101.617,17.634c-4.384,-8.369 -9.066,-15.741 -14.844,-22.515c-10.261,-11.955 -22.515,-20.025 -37.957,-23.013c-13.15,-2.59 -26.401,-1.793 -39.551,0.697c-14.645,2.69 -29.388,5.778 -44.333,8.169c-11.158,1.794 -22.515,3.089 -33.971,1.594l-6.376,-0.996c3.487,4.981 6.376,9.763 9.963,14.047c6.475,7.671 13.05,15.442 20.622,22.216c32.476,29.089 71.629,38.255 112.476,24.009c8.966,-3.188 17.334,-7.87 25.901,-11.955l0,0Z" style="fill:#fff;fill-rule:nonzero;"/><path d="M1438.42,156.188c0.2,21.717 -0.597,43.435 -1.095,64.756c-0.399,19.327 1.295,37.758 7.173,54.493c6.973,19.726 19.625,32.476 37.258,40.747c9.862,4.683 20.522,7.671 32.377,9.863c-8.668,-44.631 -21.519,-88.666 -41.941,-129.808c24.906,35.764 42.239,75.914 56.187,116.857c0.697,-1.494 1.096,-2.291 1.395,-3.088c4.283,-13.15 9.464,-26.299 12.253,-39.65c13.051,-60.671 -7.372,-110.482 -55.093,-143.259c-11.058,-7.572 -23.411,-13.449 -35.465,-19.327c-6.774,-3.188 -14.047,-5.18 -21.817,-7.97c1.195,3.387 2.191,5.878 2.988,8.468c4.782,15.442 5.679,31.681 5.778,47.919l0.002,-0.001Z" style="fill:#fff;fill-rule:nonzero;"/><path d="M1440.34,284.598c-0.996,-1.693 -1.295,-2.49 -1.793,-3.288c-15.043,-20.422 -36.761,-28.293 -63.361,-21.618c-23.511,5.878 -44.333,19.925 -63.461,38.057c-1.295,1.195 -2.49,2.49 -3.785,3.785c0.298,0.299 0.398,0.598 0.498,0.598c14.246,1.694 26.998,7.372 40.048,12.254c9.464,3.487 19.128,6.774 29.788,7.671c18.132,1.394 36.363,-5.978 53.996,-28.493c-25.702,-9.165 -53.399,-7.571 -81.093,-1.395c29.688,-10.759 59.673,-15.043 89.163,-7.571l0,0Z" style="fill:#fff;fill-rule:nonzero;"/><path d="M1279.64,134.969c8.368,12.751 15.94,25.702 23.711,38.354c7.073,11.457 15.242,21.818 25.802,29.888c12.552,9.564 26.6,13.449 42.341,13.15c8.866,-0.199 17.533,-1.494 26.699,-3.786c-24.806,-24.009 -51.106,-46.324 -80.696,-64.355c30.485,13.548 58.281,32.178 84.978,52.402c-0.199,-1.096 -0.199,-1.694 -0.298,-2.192c-2.591,-9.165 -4.683,-18.53 -8.269,-27.396c-16.538,-40.147 -49.712,-63.46 -93.448,-68.143c-10.261,-1.096 -20.522,-0.797 -30.783,-0.398c-5.778,0.199 -11.058,1.394 -17.932,2.092c2.69,1.793 4.085,2.889 5.679,4.184c9.265,7.472 15.939,16.737 22.216,26.2l0,0Z" style="fill:#fff;fill-rule:nonzero;"/><path d="M1731.33,575.288c7.572,-44.631 10.062,-90.757 3.288,-136.684c12.652,42.341 15.84,86.373 14.545,129.51c1.195,-1.196 1.893,-1.694 2.391,-2.391c8.667,-10.76 18.032,-21.419 25.204,-33.076c33.076,-52.601 29.488,-108.191 -6.873,-155.612c-8.468,-10.959 -18.53,-20.622 -28.593,-30.087c-5.578,-5.28 -12.054,-9.464 -18.828,-14.545c0.199,3.686 0.398,6.376 0.398,9.066c0.299,16.238 -3.686,32.178 -8.368,47.72c-6.376,20.92 -13.748,41.343 -20.821,61.568c-6.376,18.231 -10.66,36.263 -10.561,53.897c0.1,20.821 7.671,36.76 21.32,50.31c7.771,7.771 16.637,14.147 26.899,20.324l-0.001,0Z" style="fill:#fff;fill-rule:nonzero;"/><path d="M1580.4,512.524c7.771,6.077 15.641,11.855 25.404,15.84c16.438,6.675 35.863,5.28 59.875,-10.361c-21.22,-16.637 -47.82,-23.611 -75.715,-25.703c31.183,-1.594 60.869,3.388 86.273,19.726c-0.299,-1.893 -0.398,-2.79 -0.697,-3.586c-7.472,-24.01 -25.703,-38.256 -52.9,-39.75c-24.009,-1.395 -48.018,5.977 -71.53,17.733c-1.594,0.797 -3.088,1.693 -4.682,2.59c0.199,0.398 0.199,0.597 0.299,0.697c12.851,5.479 23.013,14.446 33.672,22.814l0.001,0Z" style="fill:#fff;fill-rule:nonzero;"/><path d="M1568.34,321.757c4.284,14.545 7.77,29.189 11.656,43.534c3.387,12.951 8.268,25.205 16.039,36.065c9.165,12.752 21.419,20.523 36.463,24.906c8.468,2.49 17.135,3.786 26.5,4.483c-16.338,-30.385 -35.067,-59.474 -58.28,-85.378c25.304,21.817 46.523,47.719 66.049,75.314c0.199,-1.096 0.299,-1.693 0.299,-2.192c0.299,-9.464 1.096,-19.127 0.199,-28.691c-3.985,-43.435 -29.487,-75.815 -69.837,-92.65c-9.364,-3.984 -19.326,-6.575 -28.989,-9.165c-5.38,-1.395 -10.959,-1.992 -17.036,-2.889l3.686,5.38c6.276,9.663 10.062,20.422 13.25,31.282l0.001,0.001Z" style="fill:#fff;fill-rule:nonzero;"/><path d="M1818.2,803.239c-8.468,19.028 -8.169,36.562 -1.394,54.494c3.785,10.062 9.165,19.526 16.039,29.387c25.504,-37.357 46.922,-78.303 59.375,-123.332c-5.579,44.233 -21.02,85.577 -40.247,124.23c1.594,-0.598 2.391,-0.797 3.088,-1.195c12.353,-6.177 25.305,-11.955 36.662,-19.526c26,-17.235 43.935,-38.654 53.598,-63.461c9.663,-24.807 11.058,-52.9 3.786,-82.389c-3.388,-13.748 -8.867,-26.899 -14.446,-39.949c-3.088,-7.173 -7.472,-13.848 -11.755,-21.32c-1.296,3.587 -2.093,6.177 -3.089,8.668c-6.077,15.341 -15.84,28.592 -26.401,41.144c-14.047,16.837 -29.089,32.676 -43.734,48.317c-13.05,14.147 -24.308,28.791 -31.481,44.93l-0.001,0.002Z" style="fill:#fff;fill-rule:nonzero;"/><path d="M1738.09,793.471c12.253,12.453 30.484,19.128 58.778,14.645c-12.453,-23.711 -33.971,-40.546 -58.579,-53.198c29.188,10.461 54.195,26.899 70.632,52.004c0.498,-1.893 0.797,-2.69 0.896,-3.586c3.089,-24.806 -7.87,-45.228 -32.177,-57.284c-21.419,-10.659 -46.325,-13.05 -72.528,-11.257c-1.793,0.099 -3.486,0.398 -5.28,0.598c0,0.398 -0.099,0.597 0,0.797c9.465,9.763 15.143,21.618 21.519,33.175c4.682,8.468 9.464,16.736 16.737,24.108l0.002,-0.002Z" style="fill:#fff;fill-rule:nonzero;"/><path d="M1780.56,549.886l1.594,6.376c2.59,11.457 2.291,22.914 1.395,34.17c-1.295,15.143 -3.288,30.087 -5.18,44.83c-1.694,13.35 -1.794,26.402 1.195,39.253c3.586,15.242 11.756,26.998 23.91,36.86c6.774,5.579 14.246,10.162 22.614,14.545c-2.889,-34.471 -8.966,-68.64 -21.02,-101.417c15.541,29.788 25.105,62.165 32.078,95.24c0.598,-0.996 0.996,-1.395 1.196,-1.893c3.985,-8.667 8.567,-17.135 11.456,-26.401c13.25,-41.841 1.594,-82.489 -30.285,-113.371c-7.472,-7.173 -15.741,-13.25 -24.01,-19.228c-4.582,-3.387 -9.663,-5.877 -14.943,-8.966l0,0.002Z" style="fill:#fff;fill-rule:nonzero;"/><path d="M1972.52,1042.54c-2.59,2.69 -4.384,4.683 -6.376,6.575c-11.656,11.357 -25.902,19.427 -40.546,26.7c-19.626,9.664 -39.551,18.331 -59.176,26.998c-17.633,7.771 -33.672,17.036 -46.523,29.09c-15.143,14.246 -21.619,30.683 -22.316,49.811c-0.399,10.759 0.897,21.518 3.487,33.274c37.857,-24.507 73.522,-54.195 102.412,-90.657c-22.216,38.255 -52.402,70.731 -85.077,98.925c1.693,0.1 2.49,0.2 3.387,0.1c13.847,-0.996 27.896,-1.295 41.443,-3.885c30.584,-5.878 55.491,-18.829 73.92,-37.858c18.53,-19.028 30.484,-44.233 35.365,-73.72c2.292,-13.748 2.292,-27.794 2.391,-41.543c-0.099,-7.771 -1.394,-15.442 -2.391,-23.81l0,0Z" style="fill:#fff;fill-rule:nonzero;"/><path d="M1812.13,1128.72c12.452,-21.818 10.36,-44.83 -7.173,-65.651c-15.542,-18.431 -37.258,-30.883 -61.966,-39.85c-1.694,-0.598 -3.387,-1.096 -5.081,-1.693c-0.199,0.398 -0.299,0.597 -0.299,0.697c4.782,13.15 5.18,26.7 6.476,40.048c0.896,9.763 2.092,19.427 5.877,29.189c6.376,16.438 20.622,29.689 48.416,36.562c-2.291,-26.799 -15.441,-50.808 -33.075,-72.626c22.614,21.618 39.252,46.623 44.631,76.212c1.096,-1.494 1.694,-2.092 2.192,-2.889l0.002,0.001Z" style="fill:#fff;fill-rule:nonzero;"/><path d="M1871.81,1061.06c7.173,-6.276 14.645,-12.254 21.021,-19.526c28.89,-32.675 34.968,-73.92 18.828,-115.264c-3.785,-9.663 -8.767,-18.629 -13.748,-27.495c-2.789,-4.882 -6.376,-9.265 -9.962,-14.346l-1.195,6.476c-2.391,11.457 -7.472,21.718 -13.051,31.68c-7.472,13.25 -15.541,26.001 -23.312,38.654c-7.073,11.456 -12.552,23.311 -15.043,36.363c-2.989,15.342 -0.199,29.589 6.874,43.534c3.985,7.87 8.966,15.043 14.944,22.416c10.958,-32.778 19.327,-66.351 22.016,-101.117c1.794,33.473 -2.59,66.847 -9.364,99.824c1.096,-0.598 1.594,-0.797 1.992,-1.196l0,-0.003Z" style="fill:#fff;fill-rule:nonzero;"/><path d="M1809.25,1425.88c-22.017,0.598 -43.836,-0.1 -65.254,-0.797c-19.327,-0.598 -37.758,0.498 -54.593,5.678c-19.825,6.077 -32.876,17.634 -42.04,34.372c-5.18,9.364 -8.767,19.625 -11.855,31.282c44.93,-4.782 89.959,-15.242 132.3,-35.664c-37.159,25.105 -78.702,40.446 -120.545,50.908c1.494,0.797 2.191,1.295 2.889,1.594c12.751,5.379 25.503,11.456 38.653,15.242c29.987,8.568 58.079,8.169 83.284,-0.896c25.205,-8.966 47.621,-26.7 65.154,-51.905c8.17,-11.756 14.545,-24.807 20.722,-37.659c3.387,-7.173 5.479,-14.943 8.269,-23.212c-3.487,1.494 -5.978,2.59 -8.667,3.487c-15.442,5.678 -31.979,7.172 -48.317,7.571l0,-0.001Z" style="fill:#fff;fill-rule:nonzero;"/><path d="M1683.72,1424.48c20.722,-13.848 28.791,-35.565 21.718,-61.568c-6.276,-23.013 -21.021,-43.137 -39.85,-61.367c-1.295,-1.195 -2.59,-2.391 -3.984,-3.586c-0.299,0.299 -0.499,0.398 -0.499,0.498c-0.896,13.35 -5.877,25.304 -10.261,37.559c-3.188,8.867 -6.176,17.932 -6.874,28.095c-1.195,17.235 5.778,35.266 27.695,53.698c9.663,-24.807 8.069,-52.005 1.096,-78.702c11.556,28.592 15.84,58.179 7.671,86.972c1.793,-0.797 2.59,-1.095 3.287,-1.594l0.001,-0.005Z" style="fill:#fff;fill-rule:nonzero;"/><path d="M1766.81,1389.62c9.165,-2.69 18.53,-4.981 27.396,-8.966c40.147,-17.932 62.761,-54.295 64.256,-98.827c0.299,-10.361 -0.797,-20.721 -1.992,-30.882c-0.598,-5.579 -2.192,-11.058 -3.587,-17.036l-3.586,5.479c-6.675,9.664 -15.342,17.235 -24.308,24.109c-12.055,9.365 -24.408,17.833 -36.662,26.402c-10.958,7.671 -20.821,16.238 -28.393,27.097c-8.966,12.752 -12.154,26.7 -11.556,42.239c0.399,8.767 1.793,17.335 4.085,26.501c23.909,-25.006 45.327,-52.402 61.767,-83.384c-11.756,31.581 -29.487,60.472 -49.712,87.569c1.196,-0.1 1.794,-0.1 2.292,-0.299l0,-0.002Z" style="fill:#fff;fill-rule:nonzero;"/><path d="M1551.02,1688.9c-20.025,-8.767 -39.352,-18.629 -58.579,-28.094c-17.335,-8.468 -34.67,-14.844 -52.303,-16.737c-20.722,-2.192 -37.659,3.686 -52.701,15.94c-8.468,6.874 -15.74,15.142 -22.913,24.905c44.034,11.457 89.163,19.228 135.388,17.932c-43.336,7.572 -86.972,5.679 -129.91,0.399c1.096,1.295 1.594,1.992 2.092,2.59c9.962,9.564 19.626,19.925 30.485,28.194c49.015,38.057 102.912,41.344 154.018,11.158c11.855,-6.974 22.615,-15.94 33.275,-24.806c5.878,-4.882 10.958,-10.859 16.737,-17.036c-3.686,-0.199 -6.376,-0.398 -9.166,-0.598c-16.239,-1.494 -31.482,-7.272 -46.424,-13.847l0.001,0Z" style="fill:#fff;fill-rule:nonzero;"/><path d="M1437.35,1636.19c24.807,-4.682 41.145,-21.12 45.927,-47.918c4.284,-23.711 -0.299,-48.317 -9.165,-73.025c-0.598,-1.693 -1.295,-3.287 -1.993,-4.981c-0.398,0.1 -0.697,0.1 -0.697,0.199c-6.974,11.955 -17.035,20.921 -26.6,30.584c-6.974,6.974 -13.748,14.147 -18.929,23.412c-8.766,15.641 -9.763,35.266 3.089,60.77c19.127,-19.228 29.288,-44.83 34.769,-72.425c-2.092,31.183 -10.76,60.073 -29.987,83.483c1.793,0 2.689,0 3.586,-0.099l0,0Z" style="fill:#fff;fill-rule:nonzero;"/><path d="M1635.01,1550.62c-14.943,2.889 -29.887,4.981 -44.532,7.173c-13.25,1.992 -25.901,5.379 -37.459,11.855c-13.649,7.571 -22.715,18.829 -28.891,33.274c-3.487,8.07 -5.778,16.538 -7.571,25.802c32.178,-12.552 63.361,-27.793 91.655,-48.217c-24.508,23.013 -52.9,41.046 -82.489,57.085c1.096,0.299 1.594,0.498 2.191,0.598c9.365,1.394 18.829,3.387 28.493,3.586c43.634,1.195 79.301,-20.821 100.52,-59.875c4.881,-9.165 8.568,-18.729 12.054,-28.393c1.993,-5.28 2.989,-10.859 4.483,-16.836l-5.678,3.287c-10.461,5.679 -21.619,8.468 -32.777,10.66l0.001,0.001Z" style="fill:#fff;fill-rule:nonzero;"/><path d="M1224.04,1839.81c-16.338,-14.246 -32.078,-29.089 -47.918,-43.435c-14.246,-12.951 -29.388,-23.711 -46.027,-30.087c-19.625,-7.472 -37.857,-5.977 -55.59,2.292c-9.962,4.682 -19.128,10.958 -28.492,18.828c40.346,21.32 81.988,39.949 126.122,51.405c-42.937,-4.582 -84.381,-17.234 -124.926,-32.177c0.797,1.494 1.095,2.291 1.494,2.988c7.472,11.656 14.445,23.91 22.913,34.57c38.355,48.516 87.868,65.254 142.861,51.107c12.752,-3.288 25.106,-8.667 37.259,-13.848c6.774,-2.889 13.05,-7.073 20.123,-11.058c-3.387,-1.394 -5.778,-2.291 -8.268,-3.387c-14.645,-6.575 -27.297,-16.537 -39.551,-27.197l0,-0.001Z" style="fill:#fff;fill-rule:nonzero;"/><path d="M1179.21,1684.52c-11.656,29.487 -28.294,54.991 -53.297,72.626c1.892,0.399 2.789,0.598 3.686,0.698c25.503,1.793 45.628,-9.465 58.28,-33.872c11.158,-21.618 14.545,-46.523 13.748,-72.925c0,-1.793 -0.199,-3.586 -0.398,-5.379c-0.399,0 -0.697,-0.1 -0.797,0c-10.959,9.563 -23.81,15.441 -36.363,22.216c-9.066,4.881 -18.032,10.061 -25.902,17.633c-13.249,12.851 -19.725,31.581 -13.947,59.673c23.91,-13.648 41.145,-35.664 54.991,-60.67l-0.001,0Z" style="fill:#fff;fill-rule:nonzero;"/><path d="M1344.9,1735.62c-14.944,-2.391 -29.689,-5.479 -44.333,-8.169c-13.25,-2.391 -26.401,-3.188 -39.551,-0.698c-15.541,2.989 -27.794,11.059 -37.957,23.013c-5.679,6.775 -10.461,14.147 -14.844,22.515c34.371,-2.789 68.442,-7.671 101.617,-17.633c-30.385,13.648 -62.663,22.016 -95.44,28.691c0.996,0.598 1.395,0.997 1.893,1.196c8.568,4.084 16.936,8.767 26.001,11.855c40.846,14.146 79.997,5.081 112.476,-24.009c7.571,-6.775 14.146,-14.545 20.622,-22.216c3.586,-4.284 6.475,-9.066 9.962,-14.047l-6.376,0.996c-11.656,1.594 -22.913,0.299 -34.07,-1.494l0,0Z" style="fill:#fff;fill-rule:nonzero;"/></g></g></g></svg>